G04 #@! TF.GenerationSoftware,KiCad,Pcbnew,9.0.0*
G04 #@! TF.CreationDate,2025-04-15T23:50:37+02:00*
G04 #@! TF.ProjectId,SUMEC_MK_V,53554d45-435f-44d4-9b5f-562e6b696361,v2.1.1*
G04 #@! TF.SameCoordinates,Original*
G04 #@! TF.FileFunction,Soldermask,Top*
G04 #@! TF.FilePolarity,Negative*
%FSLAX46Y46*%
G04 Gerber Fmt 4.6, Leading zero omitted, Abs format (unit mm)*
G04 Created by KiCad (PCBNEW 9.0.0) date 2025-04-15 23:50:37*
%MOMM*%
%LPD*%
G01*
G04 APERTURE LIST*
G04 Aperture macros list*
%AMRoundRect*
0 Rectangle with rounded corners*
0 $1 Rounding radius*
0 $2 $3 $4 $5 $6 $7 $8 $9 X,Y pos of 4 corners*
0 Add a 4 corners polygon primitive as box body*
4,1,4,$2,$3,$4,$5,$6,$7,$8,$9,$2,$3,0*
0 Add four circle primitives for the rounded corners*
1,1,$1+$1,$2,$3*
1,1,$1+$1,$4,$5*
1,1,$1+$1,$6,$7*
1,1,$1+$1,$8,$9*
0 Add four rect primitives between the rounded corners*
20,1,$1+$1,$2,$3,$4,$5,0*
20,1,$1+$1,$4,$5,$6,$7,0*
20,1,$1+$1,$6,$7,$8,$9,0*
20,1,$1+$1,$8,$9,$2,$3,0*%
%AMRotRect*
0 Rectangle, with rotation*
0 The origin of the aperture is its center*
0 $1 length*
0 $2 width*
0 $3 Rotation angle, in degrees counterclockwise*
0 Add horizontal line*
21,1,$1,$2,0,0,$3*%
G04 Aperture macros list end*
%ADD10C,0.010000*%
%ADD11RoundRect,0.250000X0.350000X0.450000X-0.350000X0.450000X-0.350000X-0.450000X0.350000X-0.450000X0*%
%ADD12RoundRect,0.250000X0.400000X0.275000X-0.400000X0.275000X-0.400000X-0.275000X0.400000X-0.275000X0*%
%ADD13RoundRect,0.250000X-0.537500X-0.425000X0.537500X-0.425000X0.537500X0.425000X-0.537500X0.425000X0*%
%ADD14RoundRect,0.250000X0.450000X-0.350000X0.450000X0.350000X-0.450000X0.350000X-0.450000X-0.350000X0*%
%ADD15RoundRect,0.250000X-0.350000X-0.450000X0.350000X-0.450000X0.350000X0.450000X-0.350000X0.450000X0*%
%ADD16R,1.854500X2.286000*%
%ADD17RoundRect,0.087500X0.250000X0.087500X-0.250000X0.087500X-0.250000X-0.087500X0.250000X-0.087500X0*%
%ADD18RoundRect,0.250000X-0.425000X0.537500X-0.425000X-0.537500X0.425000X-0.537500X0.425000X0.537500X0*%
%ADD19RoundRect,0.250000X0.275000X-0.400000X0.275000X0.400000X-0.275000X0.400000X-0.275000X-0.400000X0*%
%ADD20RoundRect,0.250000X-0.400000X-0.275000X0.400000X-0.275000X0.400000X0.275000X-0.400000X0.275000X0*%
%ADD21RoundRect,0.250000X-0.337500X-0.475000X0.337500X-0.475000X0.337500X0.475000X-0.337500X0.475000X0*%
%ADD22RoundRect,0.087500X-0.250000X-0.087500X0.250000X-0.087500X0.250000X0.087500X-0.250000X0.087500X0*%
%ADD23RoundRect,0.250000X0.475000X-0.337500X0.475000X0.337500X-0.475000X0.337500X-0.475000X-0.337500X0*%
%ADD24C,1.000000*%
%ADD25RoundRect,0.200000X-0.200000X-0.450000X0.200000X-0.450000X0.200000X0.450000X-0.200000X0.450000X0*%
%ADD26RoundRect,0.250001X-0.799999X-1.249999X0.799999X-1.249999X0.799999X1.249999X-0.799999X1.249999X0*%
%ADD27C,0.600000*%
%ADD28O,2.204000X1.104000*%
%ADD29O,1.904000X1.104000*%
%ADD30C,2.754000*%
%ADD31RoundRect,0.102000X0.000000X1.803122X-1.803122X0.000000X0.000000X-1.803122X1.803122X0.000000X0*%
%ADD32C,1.712000*%
%ADD33R,1.700000X1.700000*%
%ADD34O,1.700000X1.700000*%
%ADD35RoundRect,0.250000X0.450000X-0.325000X0.450000X0.325000X-0.450000X0.325000X-0.450000X-0.325000X0*%
%ADD36RoundRect,0.250000X-0.475000X0.337500X-0.475000X-0.337500X0.475000X-0.337500X0.475000X0.337500X0*%
%ADD37RoundRect,0.162500X-0.162500X0.837500X-0.162500X-0.837500X0.162500X-0.837500X0.162500X0.837500X0*%
%ADD38R,1.500000X0.900000*%
%ADD39R,0.900000X1.500000*%
%ADD40R,0.900000X0.900000*%
%ADD41R,2.000000X1.600000*%
%ADD42R,1.475000X0.450000*%
%ADD43R,2.460000X3.550000*%
%ADD44RoundRect,0.250000X0.337500X0.475000X-0.337500X0.475000X-0.337500X-0.475000X0.337500X-0.475000X0*%
%ADD45R,1.200000X1.500000*%
%ADD46RoundRect,0.250000X-0.450000X0.325000X-0.450000X-0.325000X0.450000X-0.325000X0.450000X0.325000X0*%
%ADD47RoundRect,0.020000X-0.295000X0.175000X-0.295000X-0.175000X0.295000X-0.175000X0.295000X0.175000X0*%
%ADD48RoundRect,0.020000X-0.175000X0.295000X-0.175000X-0.295000X0.175000X-0.295000X0.175000X0.295000X0*%
%ADD49RoundRect,0.250000X0.097227X-0.574524X0.574524X-0.097227X-0.097227X0.574524X-0.574524X0.097227X0*%
%ADD50RoundRect,0.102000X1.000000X-1.250000X1.000000X1.250000X-1.000000X1.250000X-1.000000X-1.250000X0*%
%ADD51RoundRect,0.250000X-0.450000X0.350000X-0.450000X-0.350000X0.450000X-0.350000X0.450000X0.350000X0*%
%ADD52RoundRect,0.150000X-0.256326X-0.468458X0.468458X0.256326X0.256326X0.468458X-0.468458X-0.256326X0*%
%ADD53RoundRect,0.150000X0.150000X-0.512500X0.150000X0.512500X-0.150000X0.512500X-0.150000X-0.512500X0*%
%ADD54RotRect,1.000000X1.000000X135.000000*%
%ADD55RoundRect,0.250000X0.353553X0.000000X0.000000X0.353553X-0.353553X0.000000X0.000000X-0.353553X0*%
%ADD56C,0.800000*%
%ADD57C,6.400000*%
%ADD58RoundRect,0.243750X0.243750X0.456250X-0.243750X0.456250X-0.243750X-0.456250X0.243750X-0.456250X0*%
%ADD59C,0.500000*%
%ADD60C,0.700000*%
%ADD61C,0.120000*%
G04 APERTURE END LIST*
D10*
X89650000Y-57150000D02*
X88210000Y-57150000D01*
X88210000Y-56450000D01*
X89650000Y-56450000D01*
X89650000Y-57150000D01*
G36*
X89650000Y-57150000D02*
G01*
X88210000Y-57150000D01*
X88210000Y-56450000D01*
X89650000Y-56450000D01*
X89650000Y-57150000D01*
G37*
X89650000Y-57950000D02*
X88210000Y-57950000D01*
X88210000Y-57250000D01*
X89650000Y-57250000D01*
X89650000Y-57950000D01*
G36*
X89650000Y-57950000D02*
G01*
X88210000Y-57950000D01*
X88210000Y-57250000D01*
X89650000Y-57250000D01*
X89650000Y-57950000D01*
G37*
X89650000Y-58450000D02*
X88210000Y-58450000D01*
X88210000Y-58050000D01*
X89650000Y-58050000D01*
X89650000Y-58450000D01*
G36*
X89650000Y-58450000D02*
G01*
X88210000Y-58450000D01*
X88210000Y-58050000D01*
X89650000Y-58050000D01*
X89650000Y-58450000D01*
G37*
X89650000Y-58950000D02*
X88210000Y-58950000D01*
X88210000Y-58550000D01*
X89650000Y-58550000D01*
X89650000Y-58950000D01*
G36*
X89650000Y-58950000D02*
G01*
X88210000Y-58950000D01*
X88210000Y-58550000D01*
X89650000Y-58550000D01*
X89650000Y-58950000D01*
G37*
X89650000Y-59450000D02*
X88210000Y-59450000D01*
X88210000Y-59050000D01*
X89650000Y-59050000D01*
X89650000Y-59450000D01*
G36*
X89650000Y-59450000D02*
G01*
X88210000Y-59450000D01*
X88210000Y-59050000D01*
X89650000Y-59050000D01*
X89650000Y-59450000D01*
G37*
X89650000Y-59950000D02*
X88210000Y-59950000D01*
X88210000Y-59550000D01*
X89650000Y-59550000D01*
X89650000Y-59950000D01*
G36*
X89650000Y-59950000D02*
G01*
X88210000Y-59950000D01*
X88210000Y-59550000D01*
X89650000Y-59550000D01*
X89650000Y-59950000D01*
G37*
X89650000Y-60450000D02*
X88210000Y-60450000D01*
X88210000Y-60050000D01*
X89650000Y-60050000D01*
X89650000Y-60450000D01*
G36*
X89650000Y-60450000D02*
G01*
X88210000Y-60450000D01*
X88210000Y-60050000D01*
X89650000Y-60050000D01*
X89650000Y-60450000D01*
G37*
X89650000Y-60950000D02*
X88210000Y-60950000D01*
X88210000Y-60550000D01*
X89650000Y-60550000D01*
X89650000Y-60950000D01*
G36*
X89650000Y-60950000D02*
G01*
X88210000Y-60950000D01*
X88210000Y-60550000D01*
X89650000Y-60550000D01*
X89650000Y-60950000D01*
G37*
X89650000Y-61450000D02*
X88210000Y-61450000D01*
X88210000Y-61050000D01*
X89650000Y-61050000D01*
X89650000Y-61450000D01*
G36*
X89650000Y-61450000D02*
G01*
X88210000Y-61450000D01*
X88210000Y-61050000D01*
X89650000Y-61050000D01*
X89650000Y-61450000D01*
G37*
X89650000Y-61950000D02*
X88210000Y-61950000D01*
X88210000Y-61550000D01*
X89650000Y-61550000D01*
X89650000Y-61950000D01*
G36*
X89650000Y-61950000D02*
G01*
X88210000Y-61950000D01*
X88210000Y-61550000D01*
X89650000Y-61550000D01*
X89650000Y-61950000D01*
G37*
X89650000Y-62750000D02*
X88210000Y-62750000D01*
X88210000Y-62050000D01*
X89650000Y-62050000D01*
X89650000Y-62750000D01*
G36*
X89650000Y-62750000D02*
G01*
X88210000Y-62750000D01*
X88210000Y-62050000D01*
X89650000Y-62050000D01*
X89650000Y-62750000D01*
G37*
X89650000Y-63550000D02*
X88210000Y-63550000D01*
X88210000Y-62850000D01*
X89650000Y-62850000D01*
X89650000Y-63550000D01*
G36*
X89650000Y-63550000D02*
G01*
X88210000Y-63550000D01*
X88210000Y-62850000D01*
X89650000Y-62850000D01*
X89650000Y-63550000D01*
G37*
D11*
X158850000Y-92900000D03*
X156850000Y-92900000D03*
X155150000Y-92900000D03*
X153150000Y-92900000D03*
D12*
X153125000Y-94750000D03*
X155075000Y-94750000D03*
X155075000Y-96550000D03*
X153125000Y-96550000D03*
D13*
X157112500Y-94900000D03*
X159987500Y-94900000D03*
D14*
X161300000Y-100750000D03*
X161300000Y-98750000D03*
D15*
X159250000Y-96900000D03*
X161250000Y-96900000D03*
D16*
X175804750Y-100827375D03*
X172020250Y-100827375D03*
D17*
X176425000Y-98000000D03*
X176425000Y-97500000D03*
X176425000Y-97000000D03*
X175000000Y-97000000D03*
X175000000Y-97500000D03*
X175000000Y-98000000D03*
D18*
X178112500Y-100487500D03*
X178112500Y-97612500D03*
D19*
X180112500Y-100625000D03*
X180112500Y-98675000D03*
D15*
X175412500Y-95500000D03*
X177412500Y-95500000D03*
D20*
X177962500Y-102450000D03*
X179912500Y-102450000D03*
D21*
X171375000Y-97450000D03*
X173450000Y-97450000D03*
D11*
X173412500Y-93500000D03*
X171412500Y-93500000D03*
X177412500Y-93500000D03*
X175412500Y-93500000D03*
D15*
X171412500Y-95500000D03*
X173412500Y-95500000D03*
D22*
X156475000Y-96400000D03*
X156475000Y-96900000D03*
X156475000Y-97400000D03*
X157900000Y-97400000D03*
X157900000Y-96900000D03*
X157900000Y-96400000D03*
D23*
X159350000Y-100787500D03*
X159350000Y-98712500D03*
D16*
X157142250Y-100200000D03*
X153357750Y-100200000D03*
D24*
X74950000Y-63758000D03*
D25*
X146875000Y-73200000D03*
X148125000Y-73200000D03*
X149375000Y-73200000D03*
X150625000Y-73200000D03*
X151875000Y-73200000D03*
X153125000Y-73200000D03*
D26*
X144325000Y-75950000D03*
X155675000Y-75950000D03*
D27*
X87760000Y-57110000D03*
X87760000Y-62890000D03*
D28*
X88250000Y-55675000D03*
X88250000Y-64325000D03*
D29*
X84080000Y-55675000D03*
X84080000Y-64325000D03*
D30*
X88855969Y-75483957D03*
D31*
X92391503Y-71948423D03*
D32*
X93805717Y-84676345D03*
X101583891Y-76898171D03*
D33*
X167525000Y-52750000D03*
D34*
X164985000Y-52750000D03*
X162445000Y-52750000D03*
D23*
X109750000Y-63062500D03*
X109750000Y-60987500D03*
D35*
X102250000Y-68325000D03*
X102250000Y-66275000D03*
D36*
X109700000Y-65000000D03*
X109700000Y-67075000D03*
D37*
X96780000Y-59998000D03*
X95830000Y-59998000D03*
X94880000Y-59998000D03*
X94880000Y-63418000D03*
X95830000Y-63418000D03*
X96780000Y-63418000D03*
D38*
X122900000Y-56780000D03*
X122900000Y-58050000D03*
X122900000Y-59320000D03*
X122900000Y-60590000D03*
X122900000Y-61860000D03*
X122900000Y-63130000D03*
X122900000Y-64400000D03*
X122900000Y-65670000D03*
X122900000Y-66940000D03*
X122900000Y-68210000D03*
X122900000Y-69480000D03*
X122900000Y-70750000D03*
X122900000Y-72020000D03*
X122900000Y-73290000D03*
D39*
X124665000Y-74540000D03*
X125935000Y-74540000D03*
X127205000Y-74540000D03*
X128475000Y-74540000D03*
X129745000Y-74540000D03*
X131015000Y-74540000D03*
X132285000Y-74540000D03*
X133555000Y-74540000D03*
X134825000Y-74540000D03*
X136095000Y-74540000D03*
X137365000Y-74540000D03*
X138635000Y-74540000D03*
D38*
X140400000Y-73290000D03*
X140400000Y-72020000D03*
X140400000Y-70750000D03*
X140400000Y-69480000D03*
X140400000Y-68210000D03*
X140400000Y-66940000D03*
X140400000Y-65670000D03*
X140400000Y-64400000D03*
X140400000Y-63130000D03*
X140400000Y-61860000D03*
X140400000Y-60590000D03*
X140400000Y-59320000D03*
X140400000Y-58050000D03*
X140400000Y-56780000D03*
D40*
X128750000Y-63100000D03*
X128750000Y-64500000D03*
X128750000Y-65900000D03*
X128750000Y-65900000D03*
X130150000Y-63100000D03*
X130150000Y-63100000D03*
X130150000Y-64500000D03*
X130150000Y-65900000D03*
X131550000Y-63100000D03*
X131550000Y-64500000D03*
X131550000Y-65900000D03*
D14*
X120500000Y-67000000D03*
X120500000Y-65000000D03*
D41*
X113550000Y-52250000D03*
X118950000Y-52250000D03*
D24*
X100350000Y-73000000D03*
X157000000Y-70250000D03*
X177500000Y-55500000D03*
D42*
X117588000Y-62950000D03*
X117588000Y-62300000D03*
X117588000Y-61650000D03*
X117588000Y-61000000D03*
X117588000Y-60350000D03*
X117588000Y-59700000D03*
X117588000Y-59050000D03*
X117588000Y-58400000D03*
X111712000Y-58400000D03*
X111712000Y-59050000D03*
X111712000Y-59700000D03*
X111712000Y-60350000D03*
X111712000Y-61000000D03*
X111712000Y-61650000D03*
X111712000Y-62300000D03*
X111712000Y-62950000D03*
D43*
X114650000Y-60675000D03*
D44*
X93217500Y-55850000D03*
X91142500Y-55850000D03*
D36*
X117000000Y-74762500D03*
X117000000Y-76837500D03*
D45*
X153462500Y-68250000D03*
X153462500Y-65550000D03*
D46*
X147500000Y-50875000D03*
X147500000Y-52925000D03*
D23*
X150337500Y-60637500D03*
X150337500Y-58562500D03*
D47*
X148752500Y-58100000D03*
X148752500Y-58600000D03*
X148752500Y-59100000D03*
X148752500Y-59600000D03*
X148752500Y-60100000D03*
X148752500Y-60600000D03*
X148752500Y-61100000D03*
D48*
X147587500Y-61515000D03*
D47*
X146422500Y-61100000D03*
X146422500Y-60600000D03*
X146422500Y-60100000D03*
X146422500Y-59600000D03*
X146422500Y-59100000D03*
X146422500Y-58600000D03*
X146422500Y-58100000D03*
D48*
X147587500Y-57685000D03*
D49*
X97516377Y-71533623D03*
X98983623Y-70066377D03*
D24*
X117500000Y-64500000D03*
X113250000Y-55250000D03*
D15*
X146362500Y-68250000D03*
X148362500Y-68250000D03*
D36*
X109750000Y-57137500D03*
X109750000Y-59212500D03*
D50*
X157500000Y-61500000D03*
X172500000Y-61500000D03*
D24*
X115000000Y-56750000D03*
D51*
X157500000Y-56750000D03*
X157500000Y-58750000D03*
D46*
X155500000Y-50875000D03*
X155500000Y-52925000D03*
D18*
X107650000Y-66387500D03*
X107650000Y-69262500D03*
D42*
X117564000Y-70811500D03*
X117564000Y-70161500D03*
X117564000Y-69511500D03*
X117564000Y-68861500D03*
X117564000Y-68211500D03*
X117564000Y-67561500D03*
X117564000Y-66911500D03*
X117564000Y-66261500D03*
X111688000Y-66261500D03*
X111688000Y-66911500D03*
X111688000Y-67561500D03*
X111688000Y-68211500D03*
X111688000Y-68861500D03*
X111688000Y-69511500D03*
X111688000Y-70161500D03*
X111688000Y-70811500D03*
D43*
X114626000Y-68536500D03*
D52*
X94523915Y-69382583D03*
X95867417Y-70726085D03*
X96804334Y-68445666D03*
D15*
X91180000Y-57850000D03*
X93180000Y-57850000D03*
D53*
X113300000Y-76937500D03*
X114250000Y-76937500D03*
X115200000Y-76937500D03*
X115200000Y-74662500D03*
X113300000Y-74662500D03*
D35*
X104750000Y-68325000D03*
X104750000Y-66275000D03*
D36*
X144837500Y-58562500D03*
X144837500Y-60637500D03*
D54*
X86732233Y-72017767D03*
D55*
X88500000Y-70250000D03*
X90267767Y-68482233D03*
D44*
X150650000Y-70250000D03*
X148575000Y-70250000D03*
D24*
X177500000Y-53250000D03*
D41*
X104050000Y-52250000D03*
X109450000Y-52250000D03*
D11*
X146862500Y-70150000D03*
X144862500Y-70150000D03*
D18*
X107650000Y-58525000D03*
X107650000Y-61400000D03*
D46*
X143500000Y-50875000D03*
X143500000Y-52925000D03*
D56*
X83600000Y-82750000D03*
X84302944Y-81052944D03*
X84302944Y-84447056D03*
X86000000Y-80350000D03*
D57*
X86000000Y-82750000D03*
D56*
X86000000Y-85150000D03*
X87697056Y-81052944D03*
X87697056Y-84447056D03*
X88400000Y-82750000D03*
X173100000Y-82750000D03*
X173802944Y-81052944D03*
X173802944Y-84447056D03*
X175500000Y-80350000D03*
D57*
X175500000Y-82750000D03*
D56*
X175500000Y-85150000D03*
X177197056Y-81052944D03*
X177197056Y-84447056D03*
X177900000Y-82750000D03*
D24*
X116750000Y-55250000D03*
D23*
X109700000Y-70887500D03*
X109700000Y-68812500D03*
D24*
X107650000Y-55800000D03*
D13*
X111812500Y-64600000D03*
X114687500Y-64600000D03*
D19*
X145162500Y-66325000D03*
X145162500Y-64375000D03*
D46*
X151500000Y-50875000D03*
X151500000Y-52925000D03*
D19*
X146962500Y-66325000D03*
X146962500Y-64375000D03*
D15*
X91200000Y-59758000D03*
X93200000Y-59758000D03*
D41*
X85050000Y-52250000D03*
X90450000Y-52250000D03*
D15*
X91200000Y-61758000D03*
X93200000Y-61758000D03*
D23*
X120850000Y-58037500D03*
X120850000Y-55962500D03*
D58*
X93187500Y-63758000D03*
X91312500Y-63758000D03*
D23*
X150662500Y-66387500D03*
X150662500Y-64312500D03*
D41*
X94550000Y-52250000D03*
X99950000Y-52250000D03*
D19*
X148762500Y-66325000D03*
X148762500Y-64375000D03*
D20*
X152487500Y-70250000D03*
X154437500Y-70250000D03*
D17*
X151175000Y-68750000D03*
X151175000Y-68250000D03*
X151175000Y-67750000D03*
X149750000Y-67750000D03*
X149750000Y-68250000D03*
X149750000Y-68750000D03*
D59*
X101650000Y-62600000D03*
X100554369Y-60277375D03*
D60*
X107650000Y-63050000D03*
X145162500Y-64375000D03*
X103650000Y-61250000D03*
X91701472Y-78487258D03*
X90500000Y-66000000D03*
X151350000Y-64300000D03*
X136750000Y-71000000D03*
X115750000Y-60750000D03*
X123250000Y-74750000D03*
X118450000Y-56425000D03*
X150350000Y-60100000D03*
X149000000Y-70250000D03*
X89492500Y-56749998D03*
D59*
X112850000Y-70150000D03*
D60*
X115750000Y-66250000D03*
X98000000Y-63250000D03*
X109750000Y-64300000D03*
X85742500Y-65250000D03*
X89492500Y-63250000D03*
X109750000Y-57700000D03*
X136105000Y-61500000D03*
D59*
X102750000Y-58200000D03*
D60*
X100250000Y-67000000D03*
D59*
X112700000Y-62300000D03*
D60*
X100852298Y-75352298D03*
X132000000Y-57500000D03*
X94695416Y-78259927D03*
X148500000Y-76000000D03*
X126000000Y-66500000D03*
X144850000Y-59100000D03*
X130750000Y-61750000D03*
X92450000Y-79200000D03*
X144962500Y-66850000D03*
X145661500Y-66350000D03*
D59*
X119150000Y-60325000D03*
D60*
X148752500Y-61900000D03*
X177500000Y-55500000D03*
X118450000Y-57400000D03*
X144850000Y-60100000D03*
X144962500Y-65850000D03*
X124750000Y-58000000D03*
D59*
X119126000Y-68261488D03*
D60*
X117000000Y-74150000D03*
X138250000Y-63750000D03*
D59*
X119150000Y-63825015D03*
X144750000Y-74000000D03*
D60*
X135621109Y-75839482D03*
X111750000Y-65000000D03*
X150350000Y-59100000D03*
X124500000Y-76050000D03*
X97350000Y-69600000D03*
X97950000Y-69000000D03*
X146897702Y-72000000D03*
X151000000Y-70250000D03*
X152000000Y-70250000D03*
X157000000Y-70250000D03*
X103650000Y-63700000D03*
X87550000Y-65700000D03*
X87550000Y-66700000D03*
X109750000Y-58700000D03*
X103650000Y-62800000D03*
X109426000Y-67261500D03*
X107750000Y-66500000D03*
X92234314Y-65134314D03*
D59*
X112700000Y-60299997D03*
X112850000Y-68200000D03*
D60*
X92950000Y-67800000D03*
X95850000Y-64200000D03*
X97950000Y-72000000D03*
X93187500Y-64500000D03*
X108450000Y-52250000D03*
X122500000Y-59320000D03*
X139013796Y-72743707D03*
X117950000Y-52250000D03*
X96402038Y-68831162D03*
X122750000Y-69480000D03*
X113250000Y-65354297D03*
D59*
X119126000Y-69661494D03*
X119150000Y-61725006D03*
D60*
X122750000Y-70750000D03*
D59*
X119150000Y-61025003D03*
X119126000Y-68961491D03*
X119150000Y-58924994D03*
X119150000Y-59624997D03*
X119126000Y-66111497D03*
D60*
X125650000Y-61500000D03*
X124200002Y-63400000D03*
X115750000Y-63250000D03*
D59*
X119126000Y-66811500D03*
X119150000Y-62425009D03*
D60*
X115000000Y-56750000D03*
X136500000Y-66500000D03*
D59*
X119150000Y-58224991D03*
D60*
X135250000Y-65500000D03*
X113250000Y-57500000D03*
X115550000Y-71300000D03*
D59*
X119126000Y-67561500D03*
D60*
X132250000Y-72900000D03*
X133550000Y-72900000D03*
X98452493Y-81395014D03*
X115250000Y-77000000D03*
X146450000Y-62300000D03*
X148125000Y-72000000D03*
X141250000Y-63130000D03*
X113250000Y-77000000D03*
X149375000Y-72000000D03*
X147550000Y-62300000D03*
X97798577Y-82067887D03*
X141250000Y-64400000D03*
X126750000Y-58000000D03*
X131000000Y-72900000D03*
X129750000Y-72900000D03*
X177500000Y-53250000D03*
X141750000Y-69500000D03*
X141750000Y-68200000D03*
X128450000Y-72900000D03*
X103650000Y-65000000D03*
X93101472Y-75787258D03*
X99051472Y-77587258D03*
X92501472Y-75187258D03*
X84150000Y-68600000D03*
X83450000Y-67900000D03*
X127205000Y-72900000D03*
X95650000Y-79600000D03*
X141750000Y-60600000D03*
X141750000Y-66900000D03*
D59*
X147587500Y-57250000D03*
D60*
X141750000Y-65700000D03*
D59*
X145652104Y-59525000D03*
D60*
X151500000Y-52925000D03*
X147500000Y-52925000D03*
X155500000Y-52900000D03*
X102250000Y-66750000D03*
X104750000Y-66750000D03*
X141750000Y-58000000D03*
X121350000Y-61850000D03*
X90500000Y-52250000D03*
X99950000Y-52250000D03*
X121350000Y-60600000D03*
X143500000Y-52925000D03*
X149500000Y-55000000D03*
X141750000Y-61800000D03*
X141750000Y-70800000D03*
X153750000Y-55000000D03*
D59*
X150450000Y-67750000D03*
D61*
X122650000Y-49290000D02*
X140650000Y-49290000D01*
X122650000Y-55230000D02*
X140650000Y-55230000D01*
X122650000Y-74790000D02*
X122650000Y-49290000D01*
X140650000Y-49290000D02*
X140650000Y-74790000D01*
X140650000Y-74790000D02*
X122650000Y-74790000D01*
M02*
