G04 #@! TF.GenerationSoftware,KiCad,Pcbnew,9.0.0*
G04 #@! TF.CreationDate,2025-04-15T23:50:36+02:00*
G04 #@! TF.ProjectId,SUMEC_MK_V,53554d45-435f-44d4-9b5f-562e6b696361,v2.1.1*
G04 #@! TF.SameCoordinates,Original*
G04 #@! TF.FileFunction,Copper,L2,Inr*
G04 #@! TF.FilePolarity,Positive*
%FSLAX46Y46*%
G04 Gerber Fmt 4.6, Leading zero omitted, Abs format (unit mm)*
G04 Created by KiCad (PCBNEW 9.0.0) date 2025-04-15 23:50:36*
%MOMM*%
%LPD*%
G01*
G04 APERTURE LIST*
G04 Aperture macros list*
%AMRoundRect*
0 Rectangle with rounded corners*
0 $1 Rounding radius*
0 $2 $3 $4 $5 $6 $7 $8 $9 X,Y pos of 4 corners*
0 Add a 4 corners polygon primitive as box body*
4,1,4,$2,$3,$4,$5,$6,$7,$8,$9,$2,$3,0*
0 Add four circle primitives for the rounded corners*
1,1,$1+$1,$2,$3*
1,1,$1+$1,$4,$5*
1,1,$1+$1,$6,$7*
1,1,$1+$1,$8,$9*
0 Add four rect primitives between the rounded corners*
20,1,$1+$1,$2,$3,$4,$5,0*
20,1,$1+$1,$4,$5,$6,$7,0*
20,1,$1+$1,$6,$7,$8,$9,0*
20,1,$1+$1,$8,$9,$2,$3,0*%
%AMRotRect*
0 Rectangle, with rotation*
0 The origin of the aperture is its center*
0 $1 length*
0 $2 width*
0 $3 Rotation angle, in degrees counterclockwise*
0 Add horizontal line*
21,1,$1,$2,0,0,$3*%
G04 Aperture macros list end*
G04 #@! TA.AperFunction,ComponentPad*
%ADD10O,2.000000X0.900000*%
G04 #@! TD*
G04 #@! TA.AperFunction,ComponentPad*
%ADD11O,1.700000X0.900000*%
G04 #@! TD*
G04 #@! TA.AperFunction,ComponentPad*
%ADD12C,2.550000*%
G04 #@! TD*
G04 #@! TA.AperFunction,ComponentPad*
%ADD13RotRect,2.550000X2.550000X225.000000*%
G04 #@! TD*
G04 #@! TA.AperFunction,ComponentPad*
%ADD14C,1.508000*%
G04 #@! TD*
G04 #@! TA.AperFunction,ComponentPad*
%ADD15R,1.700000X1.700000*%
G04 #@! TD*
G04 #@! TA.AperFunction,ComponentPad*
%ADD16O,1.700000X1.700000*%
G04 #@! TD*
G04 #@! TA.AperFunction,ComponentPad*
%ADD17RotRect,1.000000X1.000000X135.000000*%
G04 #@! TD*
G04 #@! TA.AperFunction,ComponentPad*
%ADD18RoundRect,0.250000X0.353553X0.000000X0.000000X0.353553X-0.353553X0.000000X0.000000X-0.353553X0*%
G04 #@! TD*
G04 #@! TA.AperFunction,ComponentPad*
%ADD19C,0.800000*%
G04 #@! TD*
G04 #@! TA.AperFunction,ComponentPad*
%ADD20C,6.400000*%
G04 #@! TD*
G04 #@! TA.AperFunction,ViaPad*
%ADD21C,0.500000*%
G04 #@! TD*
G04 #@! TA.AperFunction,ViaPad*
%ADD22C,0.700000*%
G04 #@! TD*
G04 #@! TA.AperFunction,Conductor*
%ADD23C,0.250000*%
G04 #@! TD*
G04 #@! TA.AperFunction,Conductor*
%ADD24C,0.400000*%
G04 #@! TD*
%ADD25C,0.120000*%
G04 APERTURE END LIST*
D10*
X88250000Y-55675000D03*
X88250000Y-64325000D03*
D11*
X84080000Y-55675000D03*
X84080000Y-64325000D03*
D12*
X88855969Y-75483957D03*
D13*
X92391503Y-71948423D03*
D14*
X93805717Y-84676345D03*
X101583891Y-76898171D03*
D15*
X167525000Y-52750000D03*
D16*
X164985000Y-52750000D03*
X162445000Y-52750000D03*
D17*
X86732233Y-72017767D03*
D18*
X88500000Y-70250000D03*
X90267767Y-68482233D03*
D19*
X83600000Y-82750000D03*
X84302944Y-81052944D03*
X84302944Y-84447056D03*
X86000000Y-80350000D03*
D20*
X86000000Y-82750000D03*
D19*
X86000000Y-85150000D03*
X87697056Y-81052944D03*
X87697056Y-84447056D03*
X88400000Y-82750000D03*
X173100000Y-82750000D03*
X173802944Y-81052944D03*
X173802944Y-84447056D03*
X175500000Y-80350000D03*
D20*
X175500000Y-82750000D03*
D19*
X175500000Y-85150000D03*
X177197056Y-81052944D03*
X177197056Y-84447056D03*
X177900000Y-82750000D03*
D21*
X101650000Y-62600000D03*
X100554369Y-60277375D03*
D22*
X107650000Y-63050000D03*
X145162500Y-64375000D03*
X103650000Y-61250000D03*
X91701472Y-78487258D03*
X90500000Y-66000000D03*
X151350000Y-64300000D03*
X136750000Y-71000000D03*
X115750000Y-60750000D03*
X123250000Y-74750000D03*
X118450000Y-56425000D03*
X150350000Y-60100000D03*
X149000000Y-70250000D03*
X89492500Y-56749998D03*
D21*
X112850000Y-70150000D03*
D22*
X115750000Y-66250000D03*
X98000000Y-63250000D03*
X109750000Y-64300000D03*
X85742500Y-65250000D03*
X89492500Y-63250000D03*
X109750000Y-57700000D03*
X136105000Y-61500000D03*
D21*
X102750000Y-58200000D03*
D22*
X100250000Y-67000000D03*
D21*
X112700000Y-62300000D03*
D22*
X100852298Y-75352298D03*
X132000000Y-57500000D03*
X94695416Y-78259927D03*
X148500000Y-76000000D03*
X126000000Y-66500000D03*
X144850000Y-59100000D03*
X130750000Y-61750000D03*
X92450000Y-79200000D03*
X144962500Y-66850000D03*
X145661500Y-66350000D03*
D21*
X119150000Y-60325000D03*
D22*
X148752500Y-61900000D03*
X177500000Y-55500000D03*
X118450000Y-57400000D03*
X144850000Y-60100000D03*
X144962500Y-65850000D03*
X124750000Y-58000000D03*
D21*
X119126000Y-68261488D03*
D22*
X117000000Y-74150000D03*
X138250000Y-63750000D03*
D21*
X119150000Y-63825015D03*
X144750000Y-74000000D03*
D22*
X135621109Y-75839482D03*
X111750000Y-65000000D03*
X150350000Y-59100000D03*
X124500000Y-76050000D03*
X97350000Y-69600000D03*
X97950000Y-69000000D03*
X146897702Y-72000000D03*
X151000000Y-70250000D03*
X152000000Y-70250000D03*
X157000000Y-70250000D03*
X103650000Y-63700000D03*
X87550000Y-65700000D03*
X87550000Y-66700000D03*
X109750000Y-58700000D03*
X103650000Y-62800000D03*
X109426000Y-67261500D03*
X107750000Y-66500000D03*
X92234314Y-65134314D03*
D21*
X112700000Y-60299997D03*
X112850000Y-68200000D03*
D22*
X92950000Y-67800000D03*
X95850000Y-64200000D03*
X97950000Y-72000000D03*
X93187500Y-64500000D03*
X108450000Y-52250000D03*
X122500000Y-59320000D03*
X139013796Y-72743707D03*
X117950000Y-52250000D03*
X96402038Y-68831162D03*
X122750000Y-69480000D03*
X113250000Y-65354297D03*
D21*
X119126000Y-69661494D03*
X119150000Y-61725006D03*
D22*
X122750000Y-70750000D03*
D21*
X119150000Y-61025003D03*
X119126000Y-68961491D03*
X119150000Y-58924994D03*
X119150000Y-59624997D03*
X119126000Y-66111497D03*
D22*
X125650000Y-61500000D03*
X124200002Y-63400000D03*
X115750000Y-63250000D03*
D21*
X119126000Y-66811500D03*
X119150000Y-62425009D03*
D22*
X115000000Y-56750000D03*
X136500000Y-66500000D03*
D21*
X119150000Y-58224991D03*
D22*
X135250000Y-65500000D03*
X113250000Y-57500000D03*
X115550000Y-71300000D03*
D21*
X119126000Y-67561500D03*
D22*
X132250000Y-72900000D03*
X133550000Y-72900000D03*
X98452493Y-81395014D03*
X115250000Y-77000000D03*
X146450000Y-62300000D03*
X148125000Y-72000000D03*
X141250000Y-63130000D03*
X113250000Y-77000000D03*
X149375000Y-72000000D03*
X147550000Y-62300000D03*
X97798577Y-82067887D03*
X141250000Y-64400000D03*
X126750000Y-58000000D03*
X131000000Y-72900000D03*
X129750000Y-72900000D03*
X177500000Y-53250000D03*
X141750000Y-69500000D03*
X141750000Y-68200000D03*
X128450000Y-72900000D03*
X103650000Y-65000000D03*
X93101472Y-75787258D03*
X99051472Y-77587258D03*
X92501472Y-75187258D03*
X84150000Y-68600000D03*
X83450000Y-67900000D03*
X127205000Y-72900000D03*
X95650000Y-79600000D03*
X141750000Y-60600000D03*
X141750000Y-66900000D03*
D21*
X147587500Y-57250000D03*
D22*
X141750000Y-65700000D03*
D21*
X145652104Y-59525000D03*
D22*
X151500000Y-52925000D03*
X147500000Y-52925000D03*
X155500000Y-52900000D03*
X102250000Y-66750000D03*
X104750000Y-66750000D03*
X141750000Y-58000000D03*
X121350000Y-61850000D03*
X90500000Y-52250000D03*
X99950000Y-52250000D03*
X121350000Y-60600000D03*
X143500000Y-52925000D03*
X149500000Y-55000000D03*
X141750000Y-61800000D03*
X141750000Y-70800000D03*
X153750000Y-55000000D03*
D21*
X150450000Y-67750000D03*
D23*
X122500000Y-59320000D02*
X122500000Y-57000000D01*
X122500000Y-57000000D02*
X119750000Y-54250000D01*
X119750000Y-54250000D02*
X110450000Y-54250000D01*
X110450000Y-54250000D02*
X108450000Y-52250000D01*
X136500000Y-63250000D02*
X126250000Y-63250000D01*
X139013796Y-72743707D02*
X138500000Y-72229911D01*
X123250000Y-60250000D02*
X123250000Y-56500000D01*
X138500000Y-65250000D02*
X136500000Y-63250000D01*
X126250000Y-63250000D02*
X123250000Y-60250000D01*
X120250000Y-53500000D02*
X118500000Y-53500000D01*
X123250000Y-56500000D02*
X120250000Y-53500000D01*
X117950000Y-52950000D02*
X117950000Y-52250000D01*
X138500000Y-72229911D02*
X138500000Y-65250000D01*
X118500000Y-53500000D02*
X117950000Y-52950000D01*
X115000000Y-58389594D02*
X119035415Y-62425009D01*
X115000000Y-56750000D02*
X115000000Y-58389594D01*
X119035415Y-62425009D02*
X119150000Y-62425009D01*
D24*
X136500000Y-65250000D02*
X136500000Y-66500000D01*
X122500000Y-64500000D02*
X135750000Y-64500000D01*
X135750000Y-64500000D02*
X136500000Y-65250000D01*
X119801000Y-61801000D02*
X122500000Y-64500000D01*
X119150000Y-58224991D02*
X119370651Y-58224991D01*
X119370651Y-58224991D02*
X119801000Y-58655340D01*
X119801000Y-58655340D02*
X119801000Y-61801000D01*
X113250000Y-57500000D02*
X113250000Y-59322833D01*
X119427167Y-65500000D02*
X135250000Y-65500000D01*
X113250000Y-59322833D02*
X119427167Y-65500000D01*
D23*
X99054986Y-81395014D02*
X104200000Y-76250000D01*
X143125000Y-77000000D02*
X115250000Y-77000000D01*
X148125000Y-72000000D02*
X146450000Y-70325000D01*
X114500000Y-76250000D02*
X115250000Y-77000000D01*
X98452493Y-81395014D02*
X99054986Y-81395014D01*
X146450000Y-70325000D02*
X146450000Y-62300000D01*
X104200000Y-76250000D02*
X114500000Y-76250000D01*
X148125000Y-72000000D02*
X143125000Y-77000000D01*
X104650000Y-77000000D02*
X113250000Y-77000000D01*
X97798577Y-82067887D02*
X97930690Y-82200000D01*
X113926000Y-77676000D02*
X113250000Y-77000000D01*
X99450000Y-82200000D02*
X104650000Y-77000000D01*
X97930690Y-82200000D02*
X99450000Y-82200000D01*
X149375000Y-72000000D02*
X147550000Y-70175000D01*
X143699000Y-77676000D02*
X113926000Y-77676000D01*
X147550000Y-70175000D02*
X147550000Y-62300000D01*
X149375000Y-72000000D02*
X143699000Y-77676000D01*
X107100000Y-72100000D02*
X103650000Y-68650000D01*
X128450000Y-72900000D02*
X127650000Y-72100000D01*
X127650000Y-72100000D02*
X107100000Y-72100000D01*
X103650000Y-68650000D02*
X103650000Y-65000000D01*
X127205000Y-72900000D02*
X102350000Y-72900000D01*
X102350000Y-72900000D02*
X95650000Y-79600000D01*
X147587500Y-57250000D02*
X147587500Y-59162500D01*
X147587500Y-59162500D02*
X143250000Y-63500000D01*
X143250000Y-65400000D02*
X141750000Y-66900000D01*
X143250000Y-63500000D02*
X143250000Y-65400000D01*
X142426000Y-63199000D02*
X142426000Y-65024000D01*
X142426000Y-65024000D02*
X141850000Y-65600000D01*
X145130009Y-60776000D02*
X144849000Y-60776000D01*
X145652104Y-60253905D02*
X145130009Y-60776000D01*
X145652104Y-59525000D02*
X145652104Y-60253905D01*
X144849000Y-60776000D02*
X142426000Y-63199000D01*
X141850000Y-65600000D02*
X141750000Y-65600000D01*
X94000000Y-55750000D02*
X90500000Y-52250000D01*
X121350000Y-61850000D02*
X120500000Y-61000000D01*
X120500000Y-57500000D02*
X118750000Y-55750000D01*
X120500000Y-61000000D02*
X120500000Y-57500000D01*
X118750000Y-55750000D02*
X94000000Y-55750000D01*
X119250000Y-55000000D02*
X102700000Y-55000000D01*
X102700000Y-55000000D02*
X99950000Y-52250000D01*
X121350000Y-60600000D02*
X121350000Y-57100000D01*
X121350000Y-57100000D02*
X119250000Y-55000000D01*
X142500000Y-61050000D02*
X141750000Y-61800000D01*
X147745991Y-55000000D02*
X142500000Y-60245991D01*
X149500000Y-55000000D02*
X147745991Y-55000000D01*
X142500000Y-60245991D02*
X142500000Y-61050000D01*
X144000000Y-63793991D02*
X144000000Y-65668508D01*
X144000000Y-65668508D02*
X142750000Y-66918508D01*
X152793991Y-55000000D02*
X144000000Y-63793991D01*
X142750000Y-69800000D02*
X141750000Y-70800000D01*
X142750000Y-66918508D02*
X142750000Y-69800000D01*
X153750000Y-55000000D02*
X152793991Y-55000000D01*
D25*
X122650000Y-49290000D02*
X140650000Y-49290000D01*
X122650000Y-55230000D02*
X140650000Y-55230000D01*
X122650000Y-74790000D02*
X122650000Y-49290000D01*
X140650000Y-49290000D02*
X140650000Y-74790000D01*
X140650000Y-74790000D02*
X122650000Y-74790000D01*
M02*
