G04 #@! TF.GenerationSoftware,KiCad,Pcbnew,9.0.0*
G04 #@! TF.CreationDate,2025-04-15T23:50:37+02:00*
G04 #@! TF.ProjectId,SUMEC_MK_V,53554d45-435f-44d4-9b5f-562e6b696361,v2.1.1*
G04 #@! TF.SameCoordinates,Original*
G04 #@! TF.FileFunction,Soldermask,Bot*
G04 #@! TF.FilePolarity,Negative*
%FSLAX46Y46*%
G04 Gerber Fmt 4.6, Leading zero omitted, Abs format (unit mm)*
G04 Created by KiCad (PCBNEW 9.0.0) date 2025-04-15 23:50:37*
%MOMM*%
%LPD*%
G01*
G04 APERTURE LIST*
G04 Aperture macros list*
%AMRoundRect*
0 Rectangle with rounded corners*
0 $1 Rounding radius*
0 $2 $3 $4 $5 $6 $7 $8 $9 X,Y pos of 4 corners*
0 Add a 4 corners polygon primitive as box body*
4,1,4,$2,$3,$4,$5,$6,$7,$8,$9,$2,$3,0*
0 Add four circle primitives for the rounded corners*
1,1,$1+$1,$2,$3*
1,1,$1+$1,$4,$5*
1,1,$1+$1,$6,$7*
1,1,$1+$1,$8,$9*
0 Add four rect primitives between the rounded corners*
20,1,$1+$1,$2,$3,$4,$5,0*
20,1,$1+$1,$4,$5,$6,$7,0*
20,1,$1+$1,$6,$7,$8,$9,0*
20,1,$1+$1,$8,$9,$2,$3,0*%
%AMRotRect*
0 Rectangle, with rotation*
0 The origin of the aperture is its center*
0 $1 length*
0 $2 width*
0 $3 Rotation angle, in degrees counterclockwise*
0 Add horizontal line*
21,1,$1,$2,0,0,$3*%
%AMFreePoly0*
4,1,6,1.000000,0.000000,0.500000,-0.750000,-0.500000,-0.750000,-0.500000,0.750000,0.500000,0.750000,1.000000,0.000000,1.000000,0.000000,$1*%
G04 Aperture macros list end*
%ADD10C,0.000000*%
%ADD11RoundRect,0.200000X-0.450000X0.200000X-0.450000X-0.200000X0.450000X-0.200000X0.450000X0.200000X0*%
%ADD12RoundRect,0.250001X-1.249999X0.799999X-1.249999X-0.799999X1.249999X-0.799999X1.249999X0.799999X0*%
%ADD13RoundRect,0.200000X0.450000X-0.200000X0.450000X0.200000X-0.450000X0.200000X-0.450000X-0.200000X0*%
%ADD14RoundRect,0.250001X1.249999X-0.799999X1.249999X0.799999X-1.249999X0.799999X-1.249999X-0.799999X0*%
%ADD15RoundRect,0.200000X0.200000X0.450000X-0.200000X0.450000X-0.200000X-0.450000X0.200000X-0.450000X0*%
%ADD16RoundRect,0.250001X0.799999X1.249999X-0.799999X1.249999X-0.799999X-1.249999X0.799999X-1.249999X0*%
%ADD17RoundRect,0.200000X-0.200000X-0.450000X0.200000X-0.450000X0.200000X0.450000X-0.200000X0.450000X0*%
%ADD18RoundRect,0.250001X-0.799999X-1.249999X0.799999X-1.249999X0.799999X1.249999X-0.799999X1.249999X0*%
%ADD19C,0.600000*%
%ADD20O,2.000000X0.900000*%
%ADD21O,1.700000X0.900000*%
%ADD22RoundRect,0.150000X0.625000X-0.150000X0.625000X0.150000X-0.625000X0.150000X-0.625000X-0.150000X0*%
%ADD23RoundRect,0.250000X0.650000X-0.350000X0.650000X0.350000X-0.650000X0.350000X-0.650000X-0.350000X0*%
%ADD24RoundRect,0.150000X-0.625000X0.150000X-0.625000X-0.150000X0.625000X-0.150000X0.625000X0.150000X0*%
%ADD25RoundRect,0.250000X-0.650000X0.350000X-0.650000X-0.350000X0.650000X-0.350000X0.650000X0.350000X0*%
%ADD26C,2.550000*%
%ADD27RotRect,2.550000X2.550000X225.000000*%
%ADD28C,1.508000*%
%ADD29R,1.700000X1.700000*%
%ADD30O,1.700000X1.700000*%
%ADD31RotRect,1.000000X1.000000X135.000000*%
%ADD32RoundRect,0.250000X0.353553X0.000000X0.000000X0.353553X-0.353553X0.000000X0.000000X-0.353553X0*%
%ADD33C,0.800000*%
%ADD34C,6.400000*%
%ADD35RoundRect,0.250000X-0.565685X-0.070711X-0.070711X-0.565685X0.565685X0.070711X0.070711X0.565685X0*%
%ADD36RoundRect,0.250001X-0.114905X0.768977X-0.768977X0.114905X0.114905X-0.768977X0.768977X-0.114905X0*%
%ADD37RoundRect,0.250000X0.425000X-0.537500X0.425000X0.537500X-0.425000X0.537500X-0.425000X-0.537500X0*%
%ADD38RoundRect,0.250000X0.475000X-0.337500X0.475000X0.337500X-0.475000X0.337500X-0.475000X-0.337500X0*%
%ADD39RoundRect,0.250000X0.450000X-0.350000X0.450000X0.350000X-0.450000X0.350000X-0.450000X-0.350000X0*%
%ADD40RoundRect,0.250000X-0.350000X-0.450000X0.350000X-0.450000X0.350000X0.450000X-0.350000X0.450000X0*%
%ADD41RoundRect,0.250000X-0.070711X0.565685X-0.565685X0.070711X0.070711X-0.565685X0.565685X-0.070711X0*%
%ADD42C,1.000000*%
%ADD43FreePoly0,180.000000*%
%ADD44FreePoly0,0.000000*%
%ADD45RoundRect,0.075000X0.512652X-0.406586X-0.406586X0.512652X-0.512652X0.406586X0.406586X-0.512652X0*%
%ADD46FreePoly0,135.000000*%
%ADD47FreePoly0,315.000000*%
%ADD48RoundRect,0.250000X-0.425000X0.537500X-0.425000X-0.537500X0.425000X-0.537500X0.425000X0.537500X0*%
%ADD49RoundRect,0.150000X-0.256326X-0.468458X0.468458X0.256326X0.256326X0.468458X-0.468458X-0.256326X0*%
%ADD50RoundRect,0.250000X0.337500X0.475000X-0.337500X0.475000X-0.337500X-0.475000X0.337500X-0.475000X0*%
%ADD51RoundRect,0.250000X0.070711X-0.565685X0.565685X-0.070711X-0.070711X0.565685X-0.565685X0.070711X0*%
%ADD52RoundRect,0.250000X-0.097227X0.574524X-0.574524X0.097227X0.097227X-0.574524X0.574524X-0.097227X0*%
%ADD53RoundRect,0.250000X-0.574524X-0.097227X-0.097227X-0.574524X0.574524X0.097227X0.097227X0.574524X0*%
%ADD54RoundRect,0.250000X0.350000X0.450000X-0.350000X0.450000X-0.350000X-0.450000X0.350000X-0.450000X0*%
%ADD55C,0.500000*%
%ADD56C,0.700000*%
%ADD57C,0.120000*%
G04 APERTURE END LIST*
D10*
G36*
X160693731Y-74610203D02*
G01*
X160745307Y-74630596D01*
X160763582Y-74650204D01*
X160780740Y-74690780D01*
X160765423Y-74730812D01*
X160717137Y-74764678D01*
X160653350Y-74772359D01*
X160638077Y-74769415D01*
X160605384Y-74746055D01*
X160596827Y-74690780D01*
X160597424Y-74670817D01*
X160611812Y-74626227D01*
X160653350Y-74609202D01*
X160693731Y-74610203D01*
G37*
G36*
X159929833Y-74501228D02*
G01*
X159947245Y-74524006D01*
X159927381Y-74560814D01*
X159919677Y-74568823D01*
X159901203Y-74598938D01*
X159916797Y-74617110D01*
X159971361Y-74625607D01*
X160069796Y-74626698D01*
X160150762Y-74627725D01*
X160242381Y-74639471D01*
X160304255Y-74665111D01*
X160344083Y-74701259D01*
X160359241Y-74759765D01*
X160357294Y-74771014D01*
X160348056Y-74790970D01*
X160325083Y-74803701D01*
X160279549Y-74811053D01*
X160202626Y-74814875D01*
X160085488Y-74817010D01*
X159981467Y-74817726D01*
X159893841Y-74815392D01*
X159836610Y-74808268D01*
X159799650Y-74794966D01*
X159772835Y-74774097D01*
X159736860Y-74722553D01*
X159726218Y-74646544D01*
X159758123Y-74574146D01*
X159830178Y-74516133D01*
X159886076Y-74497504D01*
X159929833Y-74501228D01*
G37*
G36*
X164172195Y-57676438D02*
G01*
X164267430Y-57687229D01*
X164330272Y-57705788D01*
X164343686Y-57713973D01*
X164376323Y-57755479D01*
X164385446Y-57826231D01*
X164385143Y-57842015D01*
X164377620Y-57888387D01*
X164354484Y-57932861D01*
X164308438Y-57986604D01*
X164232185Y-58060782D01*
X164077248Y-58198151D01*
X163895243Y-58341206D01*
X163714483Y-58465500D01*
X163542481Y-58566282D01*
X163386752Y-58638805D01*
X163254812Y-58678321D01*
X163210899Y-58683890D01*
X163153911Y-58673559D01*
X163095421Y-58631451D01*
X163085871Y-58622983D01*
X163031921Y-58575517D01*
X162993833Y-58542586D01*
X162965017Y-58504200D01*
X162963591Y-58453337D01*
X162994201Y-58387106D01*
X163059128Y-58300670D01*
X163160662Y-58189191D01*
X163189406Y-58159740D01*
X163325636Y-58031450D01*
X163466837Y-57914581D01*
X163603975Y-57815751D01*
X163728027Y-57741573D01*
X163829963Y-57698667D01*
X163852795Y-57692958D01*
X163948810Y-57679073D01*
X164060632Y-57673643D01*
X164172195Y-57676438D01*
G37*
G36*
X163806732Y-68336255D02*
G01*
X163874687Y-68367954D01*
X163904832Y-68414363D01*
X163919531Y-68492687D01*
X163915926Y-68532873D01*
X163896931Y-68580845D01*
X163854885Y-68636199D01*
X163782340Y-68710779D01*
X163767655Y-68724890D01*
X163702940Y-68781103D01*
X163628924Y-68834245D01*
X163536625Y-68889825D01*
X163417062Y-68953350D01*
X163261251Y-69030329D01*
X163129786Y-69093621D01*
X162989004Y-69160017D01*
X162880131Y-69208629D01*
X162796345Y-69241817D01*
X162730828Y-69261941D01*
X162676761Y-69271359D01*
X162627324Y-69272431D01*
X162575699Y-69267515D01*
X162513056Y-69255588D01*
X162425247Y-69216921D01*
X162380375Y-69159982D01*
X162380206Y-69087881D01*
X162426497Y-69003735D01*
X162448309Y-68978645D01*
X162526146Y-68905288D01*
X162632348Y-68818599D01*
X162756722Y-68725994D01*
X162889076Y-68634889D01*
X163019218Y-68552698D01*
X163136957Y-68486838D01*
X163283228Y-68421451D01*
X163434273Y-68371187D01*
X163577733Y-68339288D01*
X163704817Y-68327172D01*
X163806732Y-68336255D01*
G37*
G36*
X160955314Y-71757109D02*
G01*
X160966962Y-71769495D01*
X160978062Y-71792038D01*
X160989764Y-71830210D01*
X161003227Y-71889484D01*
X161019602Y-71975330D01*
X161040043Y-72093224D01*
X161065707Y-72248634D01*
X161097746Y-72447035D01*
X161114531Y-72552354D01*
X161130012Y-72651233D01*
X161140994Y-72723373D01*
X161145804Y-72757936D01*
X161145798Y-72762720D01*
X161126612Y-72804222D01*
X161088222Y-72845306D01*
X161050480Y-72863905D01*
X161045903Y-72863446D01*
X161007111Y-72840359D01*
X160969361Y-72797823D01*
X160952392Y-72757293D01*
X160951765Y-72742047D01*
X160945874Y-72677166D01*
X160935092Y-72581842D01*
X160921029Y-72468760D01*
X160905294Y-72350605D01*
X160889498Y-72240060D01*
X160875254Y-72149808D01*
X160847583Y-71987452D01*
X160641326Y-72084107D01*
X160553245Y-72124022D01*
X160432074Y-72171591D01*
X160343568Y-72193998D01*
X160282466Y-72192348D01*
X160243509Y-72167745D01*
X160227574Y-72140003D01*
X160224055Y-72095512D01*
X160228223Y-72089184D01*
X160267599Y-72058555D01*
X160339203Y-72015995D01*
X160433619Y-71965919D01*
X160541426Y-71912735D01*
X160653207Y-71860858D01*
X160759543Y-71814700D01*
X160851016Y-71778670D01*
X160918206Y-71757184D01*
X160951695Y-71754653D01*
X160955314Y-71757109D01*
G37*
G36*
X160440424Y-73821494D02*
G01*
X160497606Y-73854931D01*
X160536460Y-73895573D01*
X160551462Y-73934964D01*
X160559298Y-73995437D01*
X160551940Y-74044957D01*
X160530065Y-74065474D01*
X160524851Y-74076608D01*
X160554587Y-74103648D01*
X160583386Y-74132843D01*
X160606405Y-74189132D01*
X160603001Y-74243559D01*
X160571391Y-74277653D01*
X160536340Y-74277136D01*
X160487593Y-74250398D01*
X160480113Y-74244123D01*
X160447039Y-74226731D01*
X160397028Y-74217215D01*
X160319439Y-74214315D01*
X160203622Y-74216771D01*
X160179794Y-74217571D01*
X160077576Y-74220043D01*
X160011401Y-74217926D01*
X159970343Y-74209173D01*
X159943476Y-74191735D01*
X159919875Y-74163561D01*
X159912780Y-74153711D01*
X159869067Y-74064082D01*
X159858194Y-73976563D01*
X159882339Y-73906082D01*
X159883345Y-73904731D01*
X159909080Y-73875040D01*
X159925512Y-73882036D01*
X159945153Y-73930603D01*
X159948258Y-73939210D01*
X159982947Y-74021710D01*
X160015736Y-74067127D01*
X160053759Y-74085647D01*
X160077136Y-74084975D01*
X160080476Y-74058429D01*
X160080358Y-74057765D01*
X160167656Y-74057765D01*
X160327005Y-74055489D01*
X160405446Y-74054127D01*
X160464010Y-74052622D01*
X160486417Y-74051357D01*
X160485366Y-74048692D01*
X160461826Y-74024140D01*
X160420507Y-73988653D01*
X160378990Y-73956728D01*
X160354857Y-73942865D01*
X160348470Y-73944391D01*
X160308985Y-73964441D01*
X160252201Y-74000315D01*
X160167656Y-74057765D01*
X160080358Y-74057765D01*
X160078429Y-74046925D01*
X160095710Y-73997087D01*
X160141826Y-73937203D01*
X160206588Y-73878780D01*
X160279811Y-73833322D01*
X160327286Y-73813249D01*
X160354857Y-73809099D01*
X160382324Y-73804964D01*
X160440424Y-73821494D01*
G37*
G36*
X160011096Y-72407660D02*
G01*
X160170976Y-72412988D01*
X160307263Y-72418997D01*
X160438133Y-72427104D01*
X160545041Y-72436228D01*
X160619633Y-72445651D01*
X160653550Y-72454648D01*
X160654294Y-72455242D01*
X160672261Y-72483563D01*
X160644452Y-72503287D01*
X160570221Y-72514511D01*
X160448926Y-72517332D01*
X160279921Y-72511850D01*
X160265365Y-72511116D01*
X160140355Y-72504046D01*
X160029768Y-72496511D01*
X159945125Y-72489368D01*
X159897955Y-72483472D01*
X159863260Y-72478625D01*
X159864957Y-72485326D01*
X159899586Y-72501606D01*
X159960018Y-72524750D01*
X160039128Y-72552037D01*
X160129791Y-72580752D01*
X160224879Y-72608175D01*
X160330879Y-72637076D01*
X160458682Y-72672289D01*
X160549572Y-72698487D01*
X160609835Y-72718071D01*
X160645761Y-72733443D01*
X160663637Y-72747001D01*
X160669751Y-72761149D01*
X160670391Y-72778290D01*
X160669572Y-72788061D01*
X160656250Y-72812296D01*
X160622218Y-72831383D01*
X160561811Y-72846450D01*
X160469363Y-72858624D01*
X160339206Y-72869034D01*
X160165675Y-72878810D01*
X160003893Y-72884853D01*
X159845727Y-72884562D01*
X159735487Y-72875623D01*
X159673290Y-72858047D01*
X159659256Y-72831846D01*
X159664445Y-72825843D01*
X159711467Y-72810669D01*
X159805002Y-72797933D01*
X159943212Y-72787916D01*
X160040100Y-72781770D01*
X160135927Y-72773447D01*
X160203909Y-72764906D01*
X160233467Y-72757263D01*
X160235358Y-72748514D01*
X160207773Y-72741297D01*
X160199704Y-72740515D01*
X160147615Y-72727430D01*
X160067838Y-72701557D01*
X159974089Y-72667245D01*
X159917139Y-72644131D01*
X159815163Y-72595057D01*
X159745734Y-72549942D01*
X159713629Y-72512254D01*
X159723633Y-72485466D01*
X159733863Y-72473637D01*
X159734642Y-72433400D01*
X159733158Y-72427265D01*
X159739533Y-72416228D01*
X159764420Y-72409034D01*
X159813913Y-72405398D01*
X159894108Y-72405035D01*
X160011096Y-72407660D01*
G37*
G36*
X160218831Y-73115160D02*
G01*
X160294186Y-73128127D01*
X160375091Y-73148828D01*
X160445836Y-73173600D01*
X160490709Y-73198779D01*
X160523559Y-73236341D01*
X160529893Y-73277239D01*
X160500115Y-73324886D01*
X160431304Y-73388611D01*
X160327087Y-73475991D01*
X160414355Y-73476471D01*
X160423138Y-73476296D01*
X160522094Y-73452157D01*
X160626926Y-73398082D01*
X160889873Y-73398082D01*
X160900015Y-73399112D01*
X160945238Y-73388737D01*
X161011859Y-73366001D01*
X161036459Y-73356007D01*
X161098542Y-73325238D01*
X161145082Y-73295106D01*
X161169318Y-73271537D01*
X161164495Y-73260457D01*
X161123853Y-73267792D01*
X161072497Y-73287194D01*
X161006747Y-73318367D01*
X160945403Y-73352244D01*
X160901951Y-73381320D01*
X160889873Y-73398082D01*
X160626926Y-73398082D01*
X160647313Y-73387566D01*
X160739839Y-73331213D01*
X160848104Y-73267461D01*
X160929882Y-73223440D01*
X160993888Y-73194951D01*
X161048841Y-73177794D01*
X161103455Y-73167768D01*
X161148412Y-73163025D01*
X161164495Y-73164175D01*
X161211528Y-73167539D01*
X161253401Y-73192939D01*
X161261704Y-73202362D01*
X161278907Y-73259671D01*
X161254659Y-73325106D01*
X161193021Y-73391870D01*
X161098053Y-73453159D01*
X161038617Y-73479058D01*
X160938403Y-73513511D01*
X160828836Y-73544345D01*
X160728153Y-73566547D01*
X160654591Y-73575101D01*
X160607991Y-73586251D01*
X160534529Y-73617658D01*
X160452465Y-73662212D01*
X160429949Y-73675567D01*
X160321970Y-73732248D01*
X160239264Y-73762572D01*
X160186337Y-73765320D01*
X160167695Y-73739273D01*
X160169509Y-73729773D01*
X160197110Y-73686608D01*
X160247391Y-73638392D01*
X160253509Y-73633553D01*
X160296592Y-73596471D01*
X160303222Y-73579494D01*
X160276817Y-73575310D01*
X160242077Y-73569800D01*
X160189225Y-73536238D01*
X160167695Y-73484721D01*
X160177034Y-73467753D01*
X160219874Y-73432201D01*
X160285714Y-73393450D01*
X160330037Y-73369501D01*
X160396162Y-73327877D01*
X160435845Y-73294953D01*
X160450597Y-73268092D01*
X160434820Y-73245998D01*
X160379918Y-73219474D01*
X160367588Y-73214487D01*
X160298988Y-73191750D01*
X160248178Y-73182313D01*
X160233764Y-73181377D01*
X160184056Y-73166944D01*
X160150683Y-73142862D01*
X160149429Y-73119216D01*
X160164740Y-73113592D01*
X160218831Y-73115160D01*
G37*
G36*
X166860384Y-55826016D02*
G01*
X167226483Y-55856199D01*
X167566545Y-55908981D01*
X167890611Y-55985968D01*
X168208725Y-56088762D01*
X168228349Y-56096017D01*
X168519103Y-56223989D01*
X168814247Y-56389519D01*
X169107221Y-56586711D01*
X169391464Y-56809670D01*
X169660418Y-57052500D01*
X169907518Y-57309308D01*
X170126206Y-57574197D01*
X170309921Y-57841272D01*
X170452104Y-58104637D01*
X170541029Y-58308806D01*
X170693916Y-58721718D01*
X170816172Y-59142474D01*
X170904564Y-59559157D01*
X170955856Y-59959856D01*
X170957235Y-59977310D01*
X170969660Y-60286890D01*
X170962370Y-60613433D01*
X170936596Y-60941012D01*
X170893562Y-61253697D01*
X170834495Y-61535555D01*
X170782987Y-61709728D01*
X170690510Y-61958879D01*
X170575145Y-62220841D01*
X170443064Y-62482744D01*
X170300446Y-62731714D01*
X170153466Y-62954885D01*
X170068671Y-63066828D01*
X169906471Y-63257507D01*
X169718938Y-63456180D01*
X169516398Y-63652971D01*
X169309174Y-63838000D01*
X169107592Y-64001386D01*
X168921978Y-64133251D01*
X168901491Y-64146328D01*
X168751352Y-64234471D01*
X168571027Y-64330259D01*
X168374596Y-64426963D01*
X168176140Y-64517856D01*
X167989740Y-64596208D01*
X167829475Y-64655291D01*
X167791271Y-64667750D01*
X167366446Y-64781000D01*
X166932367Y-64852318D01*
X166496712Y-64881157D01*
X166067159Y-64866979D01*
X165651377Y-64809239D01*
X165483211Y-64772788D01*
X165204815Y-64699573D01*
X164915814Y-64609736D01*
X164624654Y-64506689D01*
X164339779Y-64393841D01*
X164069633Y-64274605D01*
X163822659Y-64152391D01*
X163607302Y-64030611D01*
X163432005Y-63912676D01*
X163104906Y-63639340D01*
X162799019Y-63323005D01*
X162530300Y-62975393D01*
X162298475Y-62596055D01*
X162103274Y-62184548D01*
X161944428Y-61740423D01*
X161821662Y-61263235D01*
X161817013Y-61240738D01*
X161780566Y-61011041D01*
X161755269Y-60745768D01*
X161741438Y-60455976D01*
X161740804Y-60361730D01*
X161914385Y-60361730D01*
X161936912Y-60733726D01*
X161986706Y-61092578D01*
X162064455Y-61446718D01*
X162170845Y-61804573D01*
X162255459Y-62033005D01*
X162426126Y-62396997D01*
X162632506Y-62742637D01*
X162870425Y-63065010D01*
X163135708Y-63359192D01*
X163424178Y-63620264D01*
X163731657Y-63843305D01*
X164053973Y-64023396D01*
X164147841Y-64066871D01*
X164397370Y-64172130D01*
X164671664Y-64275759D01*
X164957222Y-64373281D01*
X165240535Y-64460218D01*
X165508098Y-64532095D01*
X165746406Y-64584433D01*
X166098021Y-64630553D01*
X166488306Y-64641424D01*
X166887467Y-64614049D01*
X167285242Y-64549156D01*
X167671366Y-64447479D01*
X167795235Y-64405622D01*
X168064765Y-64299430D01*
X168335755Y-64174075D01*
X168595688Y-64035993D01*
X168832049Y-63891624D01*
X169032325Y-63747403D01*
X169056619Y-63727782D01*
X169196886Y-63606706D01*
X169349136Y-63464294D01*
X169505034Y-63309260D01*
X169656241Y-63150321D01*
X169794424Y-62996194D01*
X169911244Y-62855596D01*
X169998366Y-62737246D01*
X170010818Y-62718455D01*
X170224587Y-62360143D01*
X170403770Y-61988549D01*
X170544319Y-61613065D01*
X170642191Y-61243083D01*
X170656146Y-61158799D01*
X170672230Y-61013073D01*
X170685442Y-60837825D01*
X170695451Y-60644108D01*
X170701926Y-60442982D01*
X170704537Y-60245498D01*
X170702950Y-60062715D01*
X170696835Y-59905688D01*
X170685863Y-59785472D01*
X170661255Y-59627413D01*
X170599611Y-59323183D01*
X170520370Y-59015841D01*
X170426919Y-58715817D01*
X170322635Y-58433541D01*
X170210907Y-58179444D01*
X170095113Y-57963956D01*
X170066147Y-57917830D01*
X169945706Y-57748468D01*
X169795543Y-57563775D01*
X169623834Y-57373425D01*
X169438758Y-57187100D01*
X169295589Y-57054503D01*
X168991235Y-56804379D01*
X168682806Y-56596108D01*
X168362353Y-56425197D01*
X168021928Y-56287150D01*
X167653582Y-56177470D01*
X167489602Y-56140853D01*
X167164848Y-56091078D01*
X166816422Y-56063315D01*
X166452149Y-56056767D01*
X166079849Y-56070635D01*
X165707351Y-56104124D01*
X165342476Y-56156435D01*
X164993050Y-56226772D01*
X164666897Y-56314336D01*
X164371841Y-56418333D01*
X164115706Y-56537963D01*
X164034829Y-56583136D01*
X163768154Y-56748217D01*
X163500822Y-56936518D01*
X163240611Y-57141346D01*
X162995300Y-57356001D01*
X162772668Y-57573787D01*
X162580496Y-57788009D01*
X162426563Y-57991968D01*
X162306271Y-58184331D01*
X162205032Y-58380735D01*
X162124334Y-58584156D01*
X162060659Y-58804994D01*
X162010487Y-59053648D01*
X161970300Y-59340518D01*
X161948389Y-59544591D01*
X161918438Y-59968162D01*
X161914385Y-60361730D01*
X161740804Y-60361730D01*
X161739398Y-60152725D01*
X161749466Y-59847071D01*
X161771965Y-59550071D01*
X161781345Y-59462806D01*
X161809174Y-59248314D01*
X161843801Y-59025818D01*
X161883107Y-58806697D01*
X161924972Y-58602331D01*
X161967278Y-58424101D01*
X162007904Y-58283387D01*
X162013835Y-58266143D01*
X162076020Y-58123251D01*
X162165988Y-57960228D01*
X162276718Y-57788895D01*
X162401190Y-57621078D01*
X162410999Y-57608856D01*
X162556932Y-57444462D01*
X162737592Y-57266338D01*
X162944206Y-57081469D01*
X163168004Y-56896839D01*
X163400214Y-56719436D01*
X163632064Y-56556242D01*
X163854785Y-56414243D01*
X164059602Y-56300424D01*
X164107859Y-56276614D01*
X164434696Y-56139790D01*
X164798786Y-56025450D01*
X165194074Y-55934791D01*
X165614506Y-55869011D01*
X166054028Y-55829304D01*
X166452149Y-55818364D01*
X166506580Y-55816868D01*
X166860384Y-55826016D01*
G37*
G36*
X166404424Y-66885252D02*
G01*
X166522071Y-66891281D01*
X166630523Y-66901237D01*
X166739537Y-66915433D01*
X166894861Y-66939893D01*
X167388725Y-67042533D01*
X167860154Y-67178952D01*
X168304529Y-67347466D01*
X168717228Y-67546390D01*
X169093631Y-67774038D01*
X169222349Y-67864155D01*
X169428467Y-68022666D01*
X169608004Y-68179543D01*
X169757368Y-68331009D01*
X169872966Y-68473287D01*
X169951207Y-68602597D01*
X169988497Y-68715161D01*
X169993667Y-68742568D01*
X170013122Y-68823510D01*
X170041429Y-68927389D01*
X170074419Y-69038503D01*
X170122718Y-69199574D01*
X170177880Y-69405557D01*
X170221363Y-69602376D01*
X170258139Y-69810940D01*
X170260958Y-69829524D01*
X170274917Y-69957628D01*
X170283476Y-70115640D01*
X170286870Y-70309860D01*
X170285332Y-70546595D01*
X170282610Y-70702455D01*
X170278601Y-70847532D01*
X170272832Y-70961619D01*
X170264378Y-71054451D01*
X170252317Y-71135765D01*
X170235725Y-71215296D01*
X170213682Y-71302778D01*
X170169426Y-71449386D01*
X170055568Y-71735160D01*
X169903278Y-72033602D01*
X169715934Y-72338391D01*
X169496915Y-72643210D01*
X169215650Y-72975455D01*
X168921092Y-73260713D01*
X168613124Y-73499046D01*
X168291535Y-73690636D01*
X168180739Y-73744692D01*
X167974307Y-73835374D01*
X167746630Y-73925499D01*
X167510588Y-74010514D01*
X167279055Y-74085866D01*
X167064912Y-74147002D01*
X166881034Y-74189369D01*
X166773055Y-74209031D01*
X166296917Y-74271984D01*
X165830012Y-74295270D01*
X165378728Y-74278781D01*
X164949447Y-74222407D01*
X164804290Y-74191358D01*
X164512785Y-74106707D01*
X164203876Y-73991496D01*
X163884874Y-73850011D01*
X163563086Y-73686533D01*
X163245824Y-73505351D01*
X162940398Y-73310748D01*
X162654116Y-73107008D01*
X162394293Y-72898416D01*
X162168234Y-72689258D01*
X161983252Y-72483817D01*
X161832536Y-72285383D01*
X161617458Y-71952163D01*
X161450199Y-71618016D01*
X161330031Y-71280727D01*
X161256226Y-70938073D01*
X161235490Y-70680213D01*
X161442161Y-70680213D01*
X161470216Y-70970216D01*
X161531339Y-71245123D01*
X161628175Y-71514303D01*
X161763366Y-71787123D01*
X161939554Y-72072953D01*
X162030648Y-72203588D01*
X162171973Y-72384046D01*
X162325716Y-72552712D01*
X162498471Y-72715657D01*
X162696833Y-72878956D01*
X162927396Y-73048683D01*
X163196755Y-73230911D01*
X163217480Y-73244353D01*
X163378511Y-73342468D01*
X163566216Y-73448044D01*
X163769284Y-73555407D01*
X163976397Y-73658878D01*
X164176246Y-73752785D01*
X164357514Y-73831449D01*
X164508889Y-73889196D01*
X164526290Y-73895091D01*
X164883176Y-73992079D01*
X165267864Y-74054472D01*
X165673555Y-74082090D01*
X166093445Y-74074749D01*
X166520732Y-74032268D01*
X166948615Y-73954465D01*
X167003624Y-73941269D01*
X167153051Y-73899929D01*
X167326485Y-73846255D01*
X167512024Y-73784410D01*
X167697772Y-73718560D01*
X167871830Y-73652864D01*
X168022298Y-73591487D01*
X168137280Y-73538591D01*
X168377414Y-73399188D01*
X168650778Y-73198582D01*
X168916646Y-72960189D01*
X169169490Y-72689982D01*
X169403783Y-72393928D01*
X169614001Y-72077998D01*
X169794617Y-71748163D01*
X169860640Y-71605288D01*
X169952029Y-71360042D01*
X170013287Y-71112120D01*
X170050233Y-70840856D01*
X170058313Y-70750987D01*
X170064938Y-70663750D01*
X170068314Y-70586525D01*
X170068418Y-70507523D01*
X170065228Y-70414958D01*
X170058720Y-70297042D01*
X170048872Y-70141985D01*
X170034707Y-69991369D01*
X170000882Y-69762351D01*
X169953966Y-69524789D01*
X169897870Y-69297869D01*
X169836510Y-69100784D01*
X169822651Y-69062707D01*
X169768097Y-68930252D01*
X169707037Y-68815006D01*
X169632645Y-68708030D01*
X169538100Y-68600391D01*
X169416576Y-68483148D01*
X169261251Y-68347366D01*
X169227076Y-68318069D01*
X169135833Y-68236562D01*
X169062035Y-68165824D01*
X169012526Y-68112607D01*
X168994151Y-68083668D01*
X168984480Y-68058263D01*
X168936804Y-68004306D01*
X168855017Y-67936282D01*
X168745496Y-67858082D01*
X168614615Y-67773598D01*
X168468745Y-67686719D01*
X168314265Y-67601338D01*
X168157548Y-67521347D01*
X168004968Y-67450634D01*
X167862901Y-67393096D01*
X167668891Y-67327680D01*
X167334309Y-67237492D01*
X166976420Y-67165223D01*
X166609818Y-67113655D01*
X166249103Y-67085567D01*
X166229590Y-67084767D01*
X165967134Y-67082358D01*
X165678101Y-67092944D01*
X165377536Y-67115168D01*
X165080484Y-67147675D01*
X164801989Y-67189108D01*
X164557098Y-67238111D01*
X164267803Y-67308925D01*
X163951894Y-67395199D01*
X163673124Y-67483046D01*
X163424983Y-67574915D01*
X163200957Y-67673252D01*
X162994532Y-67780511D01*
X162799195Y-67899138D01*
X162717274Y-67956567D01*
X162567316Y-68076902D01*
X162408527Y-68219705D01*
X162252590Y-68373751D01*
X162111193Y-68527817D01*
X161996020Y-68670676D01*
X161995089Y-68671945D01*
X161821426Y-68947069D01*
X161677682Y-69256285D01*
X161565937Y-69593334D01*
X161488263Y-69951958D01*
X161446742Y-70325898D01*
X161444535Y-70365745D01*
X161442161Y-70680213D01*
X161235490Y-70680213D01*
X161228062Y-70587841D01*
X161244810Y-70227811D01*
X161302340Y-69837250D01*
X161390110Y-69467979D01*
X161506158Y-69130951D01*
X161649323Y-68829523D01*
X161818447Y-68567049D01*
X162016077Y-68322619D01*
X162266231Y-68063033D01*
X162536138Y-67836246D01*
X162831179Y-67638724D01*
X163156732Y-67466936D01*
X163518178Y-67317351D01*
X163920894Y-67186435D01*
X163962398Y-67174523D01*
X164295189Y-67085220D01*
X164603337Y-67015500D01*
X164901428Y-66963142D01*
X165204056Y-66925923D01*
X165525809Y-66901625D01*
X165881276Y-66888026D01*
X165898725Y-66887615D01*
X165967134Y-66886311D01*
X166102507Y-66883731D01*
X166267821Y-66882839D01*
X166404424Y-66885252D01*
G37*
G36*
X172163095Y-56390256D02*
G01*
X172224036Y-56434550D01*
X172301009Y-56503027D01*
X172384897Y-56586431D01*
X172466578Y-56675505D01*
X172536935Y-56760991D01*
X172586848Y-56833637D01*
X172603669Y-56863975D01*
X172651309Y-56957351D01*
X172710517Y-57080194D01*
X172776370Y-57221686D01*
X172843941Y-57371012D01*
X172908304Y-57517358D01*
X172964538Y-57649907D01*
X173007715Y-57757847D01*
X173027794Y-57814886D01*
X173074469Y-57979455D01*
X173118369Y-58176711D01*
X173157343Y-58395164D01*
X173189244Y-58623321D01*
X173211923Y-58849695D01*
X173214178Y-58878440D01*
X173224745Y-59011576D01*
X173234568Y-59132991D01*
X173242636Y-59230292D01*
X173247936Y-59291087D01*
X173249079Y-59311080D01*
X173250752Y-59382629D01*
X173251799Y-59492883D01*
X173252208Y-59635102D01*
X173251967Y-59802545D01*
X173251065Y-59988468D01*
X173249490Y-60186133D01*
X173248357Y-60295649D01*
X173245236Y-60517368D01*
X173241099Y-60700875D01*
X173235561Y-60853727D01*
X173228227Y-60983487D01*
X173218710Y-61097715D01*
X173206621Y-61203973D01*
X173191567Y-61309819D01*
X173137520Y-61643677D01*
X173058757Y-62071790D01*
X172974119Y-62463247D01*
X172881564Y-62825224D01*
X172779049Y-63164899D01*
X172664530Y-63489448D01*
X172535967Y-63806050D01*
X172391316Y-64121883D01*
X172374953Y-64155436D01*
X172193058Y-64486301D01*
X171992618Y-64779793D01*
X171777106Y-65030771D01*
X171713177Y-65099090D01*
X171649318Y-65173992D01*
X171606703Y-65232182D01*
X171592261Y-65264888D01*
X171592293Y-65270018D01*
X171569616Y-65315093D01*
X171512318Y-65377007D01*
X171427229Y-65449209D01*
X171321178Y-65525140D01*
X171222865Y-65590200D01*
X171341424Y-65650342D01*
X171444149Y-65713673D01*
X171592485Y-65841214D01*
X171741917Y-66008376D01*
X171889820Y-66209819D01*
X172033565Y-66440211D01*
X172170527Y-66694213D01*
X172298078Y-66966491D01*
X172413591Y-67251710D01*
X172514438Y-67544534D01*
X172597993Y-67839625D01*
X172661629Y-68131649D01*
X172702718Y-68415271D01*
X172713578Y-68570654D01*
X172715505Y-68819260D01*
X172703253Y-69097588D01*
X172678020Y-69396023D01*
X172641004Y-69704942D01*
X172593405Y-70014731D01*
X172536417Y-70315768D01*
X172471240Y-70598436D01*
X172399073Y-70853117D01*
X172368697Y-70944282D01*
X172308671Y-71110921D01*
X172232646Y-71311051D01*
X172143364Y-71538133D01*
X172043575Y-71785628D01*
X171936028Y-72046994D01*
X171823468Y-72315692D01*
X171708641Y-72585182D01*
X171594296Y-72848924D01*
X171483179Y-73100377D01*
X171378038Y-73333003D01*
X171281621Y-73540261D01*
X171196673Y-73715611D01*
X171134886Y-73834689D01*
X171067406Y-73948159D01*
X171010604Y-74020722D01*
X170961876Y-74055566D01*
X170918615Y-74055881D01*
X170905157Y-74049138D01*
X170891004Y-74033794D01*
X170884677Y-74008860D01*
X170887470Y-73970851D01*
X170900678Y-73916285D01*
X170925595Y-73841678D01*
X170963518Y-73743546D01*
X171015739Y-73618405D01*
X171083554Y-73462771D01*
X171168258Y-73273161D01*
X171271144Y-73046092D01*
X171393509Y-72778078D01*
X171455782Y-72640148D01*
X171545150Y-72437021D01*
X171639089Y-72218471D01*
X171734883Y-71991190D01*
X171829815Y-71761876D01*
X171921168Y-71537226D01*
X172006227Y-71323933D01*
X172082276Y-71128692D01*
X172146596Y-70958201D01*
X172196472Y-70819154D01*
X172229189Y-70718247D01*
X172251965Y-70634871D01*
X172292479Y-70465745D01*
X172334563Y-70267928D01*
X172375746Y-70053889D01*
X172413555Y-69836099D01*
X172445519Y-69627027D01*
X172464637Y-69462077D01*
X172478406Y-69269108D01*
X172486465Y-69045043D01*
X172489272Y-68781024D01*
X172489900Y-68241545D01*
X172398505Y-67885978D01*
X172394538Y-67870666D01*
X172351355Y-67714653D01*
X172301790Y-67550628D01*
X172251660Y-67397190D01*
X172206780Y-67272933D01*
X172198811Y-67252632D01*
X172118632Y-67062161D01*
X172030059Y-66872968D01*
X171936817Y-66691407D01*
X171842631Y-66523830D01*
X171751225Y-66376590D01*
X171666326Y-66256038D01*
X171591658Y-66168526D01*
X171530947Y-66120408D01*
X171522832Y-66116163D01*
X171461956Y-66079626D01*
X171380110Y-66025748D01*
X171292642Y-65964566D01*
X171257509Y-65940010D01*
X171106655Y-65852264D01*
X170963657Y-65796582D01*
X170838533Y-65777102D01*
X170820441Y-65780590D01*
X170780229Y-65801962D01*
X170722450Y-65845717D01*
X170643129Y-65915219D01*
X170538290Y-66013834D01*
X170403955Y-66144930D01*
X170291714Y-66254126D01*
X170175153Y-66363205D01*
X170082613Y-66444481D01*
X170017207Y-66495235D01*
X169982049Y-66512758D01*
X169936638Y-66502086D01*
X169879138Y-66469300D01*
X169825470Y-66425842D01*
X169852482Y-65728801D01*
X169857167Y-65610561D01*
X169865164Y-65425853D01*
X169872658Y-65281958D01*
X169880134Y-65173523D01*
X169888071Y-65095209D01*
X169896955Y-65041673D01*
X169907269Y-65007573D01*
X169919495Y-64987564D01*
X169950540Y-64959938D01*
X169986871Y-64943365D01*
X169994579Y-64945401D01*
X170037605Y-64968454D01*
X170104814Y-65011735D01*
X170185376Y-65068421D01*
X170201421Y-65080041D01*
X170299403Y-65147420D01*
X170396202Y-65209013D01*
X170472982Y-65252748D01*
X170517813Y-65277421D01*
X170569378Y-65312384D01*
X170589460Y-65336053D01*
X170589865Y-65340419D01*
X170612541Y-65383708D01*
X170660310Y-65439856D01*
X170719667Y-65495929D01*
X170777111Y-65538991D01*
X170819141Y-65556102D01*
X170828175Y-65554154D01*
X170876282Y-65528061D01*
X170951559Y-65475790D01*
X171047506Y-65402745D01*
X171157613Y-65314325D01*
X171275380Y-65215928D01*
X171394300Y-65112957D01*
X171507870Y-65010811D01*
X171609586Y-64914892D01*
X171692943Y-64830599D01*
X171751211Y-64766108D01*
X171905248Y-64569992D01*
X172053000Y-64342134D01*
X172196248Y-64079092D01*
X172336776Y-63777418D01*
X172476366Y-63433663D01*
X172616802Y-63044383D01*
X172663305Y-62896695D01*
X172720848Y-62686826D01*
X172779920Y-62445810D01*
X172838510Y-62183139D01*
X172894608Y-61908301D01*
X172946200Y-61630788D01*
X172991274Y-61360090D01*
X173027819Y-61105701D01*
X173039126Y-60991704D01*
X173049247Y-60830650D01*
X173057344Y-60636826D01*
X173063360Y-60418603D01*
X173067238Y-60184351D01*
X173068922Y-59942442D01*
X173068357Y-59701245D01*
X173065489Y-59469132D01*
X173060257Y-59254473D01*
X173052610Y-59065638D01*
X173042489Y-58910999D01*
X173033637Y-58809917D01*
X173008910Y-58570814D01*
X172979982Y-58364047D01*
X172943864Y-58177485D01*
X172897564Y-57998994D01*
X172838090Y-57816447D01*
X172762454Y-57617708D01*
X172667663Y-57390647D01*
X172629044Y-57301129D01*
X172560516Y-57146024D01*
X172502857Y-57023880D01*
X172451008Y-56926274D01*
X172399908Y-56844780D01*
X172344499Y-56770971D01*
X172279720Y-56696425D01*
X172200515Y-56612714D01*
X172171036Y-56582014D01*
X172102532Y-56507152D01*
X172063943Y-56456535D01*
X172050677Y-56423323D01*
X172058142Y-56400680D01*
X172083043Y-56383081D01*
X172139423Y-56379478D01*
X172163095Y-56390256D01*
G37*
G36*
X118150000Y-62325000D02*
G01*
X113150000Y-62325000D01*
X113150000Y-63825000D01*
X118150000Y-63825000D01*
X118150000Y-62325000D01*
G37*
G36*
X100049569Y-77524695D02*
G01*
X98988909Y-78585355D01*
X95453375Y-75049821D01*
X96514035Y-73989161D01*
X100049569Y-77524695D01*
G37*
G36*
X118126000Y-70061500D02*
G01*
X113126000Y-70061500D01*
X113126000Y-71561500D01*
X118126000Y-71561500D01*
X118126000Y-70061500D01*
G37*
D11*
X149800000Y-62950000D03*
X149800000Y-64200000D03*
X149800000Y-65450000D03*
D12*
X152550000Y-60400000D03*
X152550000Y-68000000D03*
D13*
X111250000Y-66500000D03*
X111250000Y-65250000D03*
X111250000Y-64000000D03*
D14*
X108500000Y-69050000D03*
X108500000Y-61450000D03*
D15*
X149250000Y-73500000D03*
X148000000Y-73500000D03*
X146750000Y-73500000D03*
D16*
X151800000Y-76250000D03*
X144200000Y-76250000D03*
D15*
X125750000Y-73500000D03*
X124500000Y-73500000D03*
X123250000Y-73500000D03*
D16*
X128300000Y-76250000D03*
X120700000Y-76250000D03*
D15*
X114750000Y-73500000D03*
X113500000Y-73500000D03*
X112250000Y-73500000D03*
D16*
X117300000Y-76250000D03*
X109700000Y-76250000D03*
D17*
X129500000Y-57550000D03*
X130750000Y-57550000D03*
X132000000Y-57550000D03*
D18*
X126950000Y-54800000D03*
X134550000Y-54800000D03*
D15*
X138125000Y-73500000D03*
X136875000Y-73500000D03*
X135625000Y-73500000D03*
X134375000Y-73500000D03*
D16*
X140675000Y-76250000D03*
X131825000Y-76250000D03*
D19*
X87760000Y-57110000D03*
X87760000Y-62890000D03*
D20*
X88250000Y-55675000D03*
X88250000Y-64325000D03*
D21*
X84080000Y-55675000D03*
X84080000Y-64325000D03*
D22*
X125675000Y-66500000D03*
X125675000Y-65500000D03*
X125675000Y-64500000D03*
X125675000Y-63500000D03*
X125675000Y-62500000D03*
X125675000Y-61500000D03*
D23*
X128200000Y-67800000D03*
X128200000Y-60200000D03*
D24*
X135825000Y-61500000D03*
X135825000Y-62500000D03*
X135825000Y-63500000D03*
X135825000Y-64500000D03*
X135825000Y-65500000D03*
X135825000Y-66500000D03*
D25*
X133300000Y-60200000D03*
X133300000Y-67800000D03*
D26*
X88855969Y-75483957D03*
D27*
X92391503Y-71948423D03*
D28*
X93805717Y-84676345D03*
X101583891Y-76898171D03*
D29*
X167525000Y-52750000D03*
D30*
X164985000Y-52750000D03*
X162445000Y-52750000D03*
D31*
X86732233Y-72017767D03*
D32*
X88500000Y-70250000D03*
X90267767Y-68482233D03*
D33*
X83600000Y-82750000D03*
X84302944Y-81052944D03*
X84302944Y-84447056D03*
X86000000Y-80350000D03*
D34*
X86000000Y-82750000D03*
D33*
X86000000Y-85150000D03*
X87697056Y-81052944D03*
X87697056Y-84447056D03*
X88400000Y-82750000D03*
X173100000Y-82750000D03*
X173802944Y-81052944D03*
X173802944Y-84447056D03*
X175500000Y-80350000D03*
D34*
X175500000Y-82750000D03*
D33*
X175500000Y-85150000D03*
X177197056Y-81052944D03*
X177197056Y-84447056D03*
X177900000Y-82750000D03*
D35*
X83792893Y-68292893D03*
X85207107Y-69707107D03*
D36*
X96801821Y-67448179D03*
X94698179Y-69551821D03*
D37*
X120650000Y-58837500D03*
X120650000Y-55962500D03*
D38*
X113876000Y-68599000D03*
X113876000Y-66524000D03*
D39*
X130750000Y-61750000D03*
X130750000Y-59750000D03*
D40*
X124750000Y-58000000D03*
X126750000Y-58000000D03*
D41*
X94208579Y-74080151D03*
X92794365Y-75494365D03*
D42*
X122750000Y-66250000D03*
D43*
X117650000Y-63075000D03*
D44*
X113650000Y-63075000D03*
D40*
X115750000Y-60725000D03*
X117750000Y-60725000D03*
D45*
X97914214Y-79335786D03*
X97560660Y-79689340D03*
X97207107Y-80042893D03*
X96853554Y-80396446D03*
X96500000Y-80750000D03*
X93388730Y-77638730D03*
X93742284Y-77285176D03*
X94095837Y-76931623D03*
X94449390Y-76578070D03*
X94802944Y-76224516D03*
D40*
X115750000Y-58825000D03*
X117750000Y-58825000D03*
D39*
X147500000Y-55000000D03*
X147500000Y-53000000D03*
D40*
X115750000Y-68587500D03*
X117750000Y-68587500D03*
D46*
X99165686Y-77701472D03*
D47*
X96337258Y-74873044D03*
D48*
X147550000Y-64162500D03*
X147550000Y-67037500D03*
D49*
X86617417Y-68476085D03*
X85273915Y-67132583D03*
X87554334Y-66195666D03*
D36*
X95051821Y-65698179D03*
X92948179Y-67801821D03*
D40*
X115750000Y-66687500D03*
X117750000Y-66687500D03*
D42*
X122750000Y-70750000D03*
D39*
X151500000Y-55000000D03*
X151500000Y-53000000D03*
D50*
X107787500Y-52250000D03*
X105712500Y-52250000D03*
D51*
X97642893Y-72407107D03*
X99057107Y-70992893D03*
D52*
X97733623Y-69516377D03*
X96266377Y-70983623D03*
D39*
X104750000Y-68500000D03*
X104750000Y-66500000D03*
X143500000Y-55000000D03*
X143500000Y-53000000D03*
D53*
X91217849Y-78003635D03*
X92685095Y-79470881D03*
D43*
X117626000Y-70811500D03*
D44*
X113626000Y-70811500D03*
D54*
X140250000Y-64750000D03*
X138250000Y-64750000D03*
D50*
X117287500Y-52250000D03*
X115212500Y-52250000D03*
D38*
X113900000Y-60837500D03*
X113900000Y-58762500D03*
D35*
X93894365Y-80680151D03*
X95308579Y-82094365D03*
D42*
X122750000Y-68250000D03*
D39*
X102250000Y-68500000D03*
X102250000Y-66500000D03*
D54*
X140250000Y-62850000D03*
X138250000Y-62850000D03*
D39*
X155500000Y-55000000D03*
X155500000Y-53000000D03*
D42*
X123250000Y-61000000D03*
D39*
X122800000Y-59150000D03*
X122800000Y-57150000D03*
D55*
X101650000Y-62600000D03*
X100554369Y-60277375D03*
D56*
X107650000Y-63050000D03*
X145162500Y-64375000D03*
X103650000Y-61250000D03*
X91701472Y-78487258D03*
X90500000Y-66000000D03*
X151350000Y-64300000D03*
X136750000Y-71000000D03*
X115750000Y-60750000D03*
X123250000Y-74750000D03*
X118450000Y-56425000D03*
X150350000Y-60100000D03*
X149000000Y-70250000D03*
X89492500Y-56749998D03*
D55*
X112850000Y-70150000D03*
D56*
X115750000Y-66250000D03*
X98000000Y-63250000D03*
X109750000Y-64300000D03*
X85742500Y-65250000D03*
X89492500Y-63250000D03*
X109750000Y-57700000D03*
X136105000Y-61500000D03*
D55*
X102750000Y-58200000D03*
D56*
X100250000Y-67000000D03*
D55*
X112700000Y-62300000D03*
D56*
X100852298Y-75352298D03*
X132000000Y-57500000D03*
X94695416Y-78259927D03*
X148500000Y-76000000D03*
X126000000Y-66500000D03*
X144850000Y-59100000D03*
X130750000Y-61750000D03*
X92450000Y-79200000D03*
X144962500Y-66850000D03*
X145661500Y-66350000D03*
D55*
X119150000Y-60325000D03*
D56*
X148752500Y-61900000D03*
X177500000Y-55500000D03*
X118450000Y-57400000D03*
X144850000Y-60100000D03*
X144962500Y-65850000D03*
X124750000Y-58000000D03*
D55*
X119126000Y-68261488D03*
D56*
X117000000Y-74150000D03*
X138250000Y-63750000D03*
D55*
X119150000Y-63825015D03*
X144750000Y-74000000D03*
D56*
X135621109Y-75839482D03*
X111750000Y-65000000D03*
X150350000Y-59100000D03*
X124500000Y-76050000D03*
X97350000Y-69600000D03*
X97950000Y-69000000D03*
X146897702Y-72000000D03*
X151000000Y-70250000D03*
X152000000Y-70250000D03*
X157000000Y-70250000D03*
X103650000Y-63700000D03*
X87550000Y-65700000D03*
X87550000Y-66700000D03*
X109750000Y-58700000D03*
X103650000Y-62800000D03*
X109426000Y-67261500D03*
X107750000Y-66500000D03*
X92234314Y-65134314D03*
D55*
X112700000Y-60299997D03*
X112850000Y-68200000D03*
D56*
X92950000Y-67800000D03*
X95850000Y-64200000D03*
X97950000Y-72000000D03*
X93187500Y-64500000D03*
X108450000Y-52250000D03*
X122500000Y-59320000D03*
X139013796Y-72743707D03*
X117950000Y-52250000D03*
X96402038Y-68831162D03*
X122750000Y-69480000D03*
X113250000Y-65354297D03*
D55*
X119126000Y-69661494D03*
X119150000Y-61725006D03*
D56*
X122750000Y-70750000D03*
D55*
X119150000Y-61025003D03*
X119126000Y-68961491D03*
X119150000Y-58924994D03*
X119150000Y-59624997D03*
X119126000Y-66111497D03*
D56*
X125650000Y-61500000D03*
X124200002Y-63400000D03*
X115750000Y-63250000D03*
D55*
X119126000Y-66811500D03*
X119150000Y-62425009D03*
D56*
X115000000Y-56750000D03*
X136500000Y-66500000D03*
D55*
X119150000Y-58224991D03*
D56*
X135250000Y-65500000D03*
X113250000Y-57500000D03*
X115550000Y-71300000D03*
D55*
X119126000Y-67561500D03*
D56*
X132250000Y-72900000D03*
X133550000Y-72900000D03*
X98452493Y-81395014D03*
X115250000Y-77000000D03*
X146450000Y-62300000D03*
X148125000Y-72000000D03*
X141250000Y-63130000D03*
X113250000Y-77000000D03*
X149375000Y-72000000D03*
X147550000Y-62300000D03*
X97798577Y-82067887D03*
X141250000Y-64400000D03*
X126750000Y-58000000D03*
X131000000Y-72900000D03*
X129750000Y-72900000D03*
X177500000Y-53250000D03*
X141750000Y-69500000D03*
X141750000Y-68200000D03*
X128450000Y-72900000D03*
X103650000Y-65000000D03*
X93101472Y-75787258D03*
X99051472Y-77587258D03*
X92501472Y-75187258D03*
X84150000Y-68600000D03*
X83450000Y-67900000D03*
X127205000Y-72900000D03*
X95650000Y-79600000D03*
X141750000Y-60600000D03*
X141750000Y-66900000D03*
D55*
X147587500Y-57250000D03*
D56*
X141750000Y-65700000D03*
D55*
X145652104Y-59525000D03*
D56*
X151500000Y-52925000D03*
X147500000Y-52925000D03*
X155500000Y-52900000D03*
X102250000Y-66750000D03*
X104750000Y-66750000D03*
X141750000Y-58000000D03*
X121350000Y-61850000D03*
X90500000Y-52250000D03*
X99950000Y-52250000D03*
X121350000Y-60600000D03*
X143500000Y-52925000D03*
X149500000Y-55000000D03*
X141750000Y-61800000D03*
X141750000Y-70800000D03*
X153750000Y-55000000D03*
D55*
X150450000Y-67750000D03*
D57*
X122650000Y-49290000D02*
X140650000Y-49290000D01*
X122650000Y-55230000D02*
X140650000Y-55230000D01*
X122650000Y-74790000D02*
X122650000Y-49290000D01*
X140650000Y-49290000D02*
X140650000Y-74790000D01*
X140650000Y-74790000D02*
X122650000Y-74790000D01*
M02*
