M48
; DRILL file KiCad 10.0.0 date 2026-04-10T13:13:39
; FORMAT={-:-/ absolute / metric / decimal}
; #@! TF.CreationDate,2026-04-10T13:13:39+02:00
; #@! TF.GenerationSoftware,Kicad,Pcbnew,10.0.0
; #@! TF.FileFunction,Plated,1,4,PTH
FMAT,2
METRIC
; #@! TA.AperFunction,Plated,PTH,ViaDrill
T1C0.300
; #@! TA.AperFunction,Plated,PTH,ComponentDrill
T2C0.500
; #@! TA.AperFunction,Plated,PTH,ComponentDrill
T3C0.600
; #@! TA.AperFunction,Plated,PTH,ComponentDrill
T4C1.000
; #@! TA.AperFunction,Plated,PTH,ComponentDrill
T5C1.100
; #@! TA.AperFunction,Plated,PTH,ComponentDrill
T6C1.700
; #@! TA.AperFunction,Plated,PTH,ComponentDrill
T7C3.200
%
G90
G05
T1
X83.287Y-65.75
X83.5Y-67.75
X85.204Y-69.807
X85.488Y-77.097
X88.25Y-66.25
X89.987Y-62.695
X90.115Y-56.281
X90.131Y-51.587
X90.65Y-78.6
X90.802Y-61.925
X90.819Y-57.106
X91.5Y-82.75
X91.502Y-63.75
X91.75Y-68.0
X92.0Y-75.0
X93.0Y-65.25
X94.175Y-62.4
X94.75Y-68.25
X95.5Y-64.75
X95.75Y-80.75
X96.0Y-54.75
X96.45Y-52.5
X96.75Y-63.8
X96.75Y-72.25
X97.75Y-57.0
X98.281Y-55.358
X99.25Y-53.25
X99.5Y-51.587
X99.5Y-73.25
X99.976Y-63.79
X100.75Y-57.0
X101.25Y-75.75
X101.5Y-69.5
X102.414Y-72.242
X103.25Y-51.75
X104.15Y-61.7
X104.25Y-56.5
X104.25Y-58.5
X104.25Y-65.0
X104.3Y-60.25
X104.312Y-68.775
X104.374Y-66.95
X105.0Y-76.5
X105.25Y-70.25
X106.2Y-55.25
X106.2Y-63.25
X107.0Y-52.5
X107.745Y-65.7
X107.748Y-66.4
X107.796Y-57.2
X107.799Y-57.9
X107.827Y-63.923
X108.0Y-68.75
X109.0Y-53.75
X110.599Y-63.697
X111.0Y-77.0
X112.25Y-51.75
X112.25Y-75.75
X112.314Y-66.011
X112.335Y-57.25
X112.965Y-68.804
X113.0Y-63.5
X113.946Y-62.8
X114.0Y-58.25
X114.0Y-69.0
X115.25Y-60.75
X115.25Y-65.025
X115.25Y-69.0
X115.414Y-59.849
X116.5Y-54.75
X116.925Y-64.654
X117.75Y-65.75
X118.0Y-54.0
X119.0Y-66.25
X119.0Y-69.0
X119.0Y-70.5
X119.25Y-65.5
X119.75Y-69.75
X120.0Y-54.0
X120.0Y-59.5
X120.0Y-77.0
X122.0Y-62.75
X122.0Y-64.0
X122.0Y-75.5
X122.25Y-60.218
X122.25Y-61.5
X123.0Y-76.75
X124.0Y-65.5
X124.25Y-76.5
X125.0Y-69.75
X125.25Y-63.25
X126.0Y-70.5
X126.25Y-59.75
X126.25Y-63.25
X128.926Y-72.723
X129.5Y-58.75
X129.75Y-69.162
X130.25Y-73.5
X130.75Y-72.75
X130.825Y-76.5
X131.5Y-74.25
X132.5Y-69.25
X134.142Y-76.835
X134.5Y-60.25
X135.25Y-69.25
X135.25Y-76.5
X135.75Y-60.25
X135.75Y-64.25
X136.5Y-74.25
X137.5Y-62.25
X137.5Y-63.25
X137.5Y-70.5
X138.0Y-66.75
X138.0Y-68.0
X138.0Y-69.25
X141.75Y-67.0
X141.75Y-73.75
X142.0Y-61.5
X143.0Y-60.123
X143.0Y-63.9
X143.25Y-70.5
X143.25Y-71.25
X143.5Y-53.25
X143.5Y-67.0
X145.12Y-71.825
X145.442Y-63.809
X145.5Y-73.75
X145.75Y-57.0
X146.0Y-69.75
X146.0Y-71.825
X146.883Y-77.0
X147.0Y-69.0
X147.0Y-71.825
X148.0Y-68.25
X148.0Y-71.825
X148.605Y-69.472
X148.75Y-63.5
X149.0Y-66.0
X149.0Y-70.5
X150.0Y-71.25
X150.625Y-62.088
X152.35Y-57.4
X153.5Y-67.25
X156.75Y-53.0
X159.0Y-70.0
X162.0Y-51.25
X162.588Y-56.75
X162.617Y-62.497
X168.76Y-55.498
X169.35Y-65.5
X170.25Y-54.75
X171.0Y-61.0
X172.5Y-53.25
X172.5Y-54.0
X172.75Y-56.0
X173.25Y-53.75
X176.75Y-51.0
X178.0Y-54.75
T2
X83.6Y-82.75
X84.303Y-81.053
X84.303Y-84.447
X86.0Y-80.35
X86.0Y-85.15
X87.697Y-81.053
X87.697Y-84.447
X88.4Y-82.75
X173.1Y-82.75
X173.803Y-81.053
X173.803Y-84.447
X175.5Y-80.35
X175.5Y-85.15
X177.197Y-81.053
X177.197Y-84.447
X177.9Y-82.75
T3
X86.732Y-73.018
X88.5Y-71.25
X90.268Y-69.482
T4
X94.361Y-84.889
X102.139Y-77.111
T5
X147.71Y-52.692
X150.25Y-52.692
X152.79Y-52.692
T6
X89.411Y-75.697
X92.947Y-72.161
T7
X86.0Y-82.75
X175.5Y-82.75
T3
X84.825Y-55.18G85X84.025Y-55.18
G05
X84.825Y-63.82G85X84.025Y-63.82
G05
X89.155Y-55.18G85X88.055Y-55.18
G05
X89.155Y-63.82G85X88.055Y-63.82
G05
M30
