%TF.GenerationSoftware,KiCad,Pcbnew,10.0.0*%
%TF.CreationDate,2026-04-12T12:35:11+02:00*%
%TF.ProjectId,SUMEC_MK_V_Pro,53554d45-435f-44d4-9b5f-565f50726f2e,v2.1.1*%
%TF.SameCoordinates,Original*%
%TF.FileFunction,Soldermask,Bot*%
%TF.FilePolarity,Negative*%
%FSLAX46Y46*%
G04 Gerber Fmt 4.6, Leading zero omitted, Abs format (unit mm)*
G04 Created by KiCad (PCBNEW 10.0.0) date 2026-04-12 12:35:11*
%MOMM*%
%LPD*%
G01*
G04 APERTURE LIST*
G04 Aperture macros list*
%AMRoundRect*
0 Rectangle with rounded corners*
0 $1 Rounding radius*
0 $2 $3 $4 $5 $6 $7 $8 $9 X,Y pos of 4 corners*
0 Add a 4 corners polygon primitive as box body*
4,1,4,$2,$3,$4,$5,$6,$7,$8,$9,$2,$3,0*
0 Add four circle primitives for the rounded corners*
1,1,$1+$1,$2,$3*
1,1,$1+$1,$4,$5*
1,1,$1+$1,$6,$7*
1,1,$1+$1,$8,$9*
0 Add four rect primitives between the rounded corners*
20,1,$1+$1,$2,$3,$4,$5,0*
20,1,$1+$1,$4,$5,$6,$7,0*
20,1,$1+$1,$6,$7,$8,$9,0*
20,1,$1+$1,$8,$9,$2,$3,0*%
%AMRotRect*
0 Rectangle, with rotation*
0 The origin of the aperture is its center*
0 $1 length*
0 $2 width*
0 $3 Rotation angle, in degrees counterclockwise*
0 Add horizontal line*
21,1,$1,$2,0,0,$3*%
G04 Aperture macros list end*
%ADD10C,2.754000*%
%ADD11RoundRect,0.102000X0.000000X1.803122X-1.803122X0.000000X0.000000X-1.803122X1.803122X0.000000X0*%
%ADD12C,1.712000*%
%ADD13C,0.800000*%
%ADD14C,6.400000*%
%ADD15RoundRect,0.204545X-0.695455X-0.695455X0.695455X-0.695455X0.695455X0.695455X-0.695455X0.695455X0*%
%ADD16C,1.800000*%
%ADD17RotRect,1.000000X1.000000X135.000000*%
%ADD18RoundRect,0.250000X0.353553X0.000000X0.000000X0.353553X-0.353553X0.000000X0.000000X-0.353553X0*%
%ADD19C,0.650000*%
%ADD20O,2.100000X1.000000*%
%ADD21O,1.800000X1.000000*%
%ADD22RoundRect,0.250000X-0.450000X0.262500X-0.450000X-0.262500X0.450000X-0.262500X0.450000X0.262500X0*%
%ADD23R,1.854500X2.286000*%
%ADD24RoundRect,0.250000X-0.475000X0.250000X-0.475000X-0.250000X0.475000X-0.250000X0.475000X0.250000X0*%
%ADD25RoundRect,0.250000X-0.262500X-0.450000X0.262500X-0.450000X0.262500X0.450000X-0.262500X0.450000X0*%
%ADD26RoundRect,0.200000X0.200000X0.450000X-0.200000X0.450000X-0.200000X-0.450000X0.200000X-0.450000X0*%
%ADD27RoundRect,0.250001X0.799999X1.249999X-0.799999X1.249999X-0.799999X-1.249999X0.799999X-1.249999X0*%
%ADD28RoundRect,0.250000X0.450000X-0.262500X0.450000X0.262500X-0.450000X0.262500X-0.450000X-0.262500X0*%
%ADD29RoundRect,0.075000X0.406586X0.512652X-0.512652X-0.406586X-0.406586X-0.512652X0.512652X0.406586X0*%
%ADD30RotRect,1.830000X1.890000X225.000000*%
%ADD31RoundRect,0.150000X-0.625000X0.150000X-0.625000X-0.150000X0.625000X-0.150000X0.625000X0.150000X0*%
%ADD32RoundRect,0.250000X-0.650000X0.350000X-0.650000X-0.350000X0.650000X-0.350000X0.650000X0.350000X0*%
%ADD33RoundRect,0.150000X0.625000X-0.150000X0.625000X0.150000X-0.625000X0.150000X-0.625000X-0.150000X0*%
%ADD34RoundRect,0.250000X0.650000X-0.350000X0.650000X0.350000X-0.650000X0.350000X-0.650000X-0.350000X0*%
%ADD35RoundRect,0.250000X0.262500X0.450000X-0.262500X0.450000X-0.262500X-0.450000X0.262500X-0.450000X0*%
%ADD36RoundRect,0.250000X-0.132583X0.503814X-0.503814X0.132583X0.132583X-0.503814X0.503814X-0.132583X0*%
%ADD37RoundRect,0.250000X-0.250000X-0.475000X0.250000X-0.475000X0.250000X0.475000X-0.250000X0.475000X0*%
%ADD38RoundRect,0.200000X-0.450000X0.200000X-0.450000X-0.200000X0.450000X-0.200000X0.450000X0.200000X0*%
%ADD39RoundRect,0.250001X-1.249999X0.799999X-1.249999X-0.799999X1.249999X-0.799999X1.249999X0.799999X0*%
%ADD40RoundRect,0.150000X-0.512500X-0.150000X0.512500X-0.150000X0.512500X0.150000X-0.512500X0.150000X0*%
%ADD41RoundRect,0.250000X0.503814X0.132583X0.132583X0.503814X-0.503814X-0.132583X-0.132583X-0.503814X0*%
%ADD42RoundRect,0.250000X-0.159099X0.512652X-0.512652X0.159099X0.159099X-0.512652X0.512652X-0.159099X0*%
%ADD43RoundRect,0.102000X-1.000000X1.250000X-1.000000X-1.250000X1.000000X-1.250000X1.000000X1.250000X0*%
%ADD44RoundRect,0.200000X-0.200000X-0.450000X0.200000X-0.450000X0.200000X0.450000X-0.200000X0.450000X0*%
%ADD45RoundRect,0.250001X-0.799999X-1.249999X0.799999X-1.249999X0.799999X1.249999X-0.799999X1.249999X0*%
%ADD46RoundRect,0.250000X0.375000X0.625000X-0.375000X0.625000X-0.375000X-0.625000X0.375000X-0.625000X0*%
%ADD47RoundRect,0.087500X-0.087500X0.250000X-0.087500X-0.250000X0.087500X-0.250000X0.087500X0.250000X0*%
%ADD48RoundRect,0.200000X0.450000X-0.200000X0.450000X0.200000X-0.450000X0.200000X-0.450000X-0.200000X0*%
%ADD49RoundRect,0.250001X1.249999X-0.799999X1.249999X0.799999X-1.249999X0.799999X-1.249999X-0.799999X0*%
%ADD50RoundRect,0.250000X0.250000X0.475000X-0.250000X0.475000X-0.250000X-0.475000X0.250000X-0.475000X0*%
%ADD51RoundRect,0.250000X-0.375000X-0.625000X0.375000X-0.625000X0.375000X0.625000X-0.375000X0.625000X0*%
%ADD52RoundRect,0.150000X0.468458X-0.256326X-0.256326X0.468458X-0.468458X0.256326X0.256326X-0.468458X0*%
G04 APERTURE END LIST*
D10*
%TO.C,J1*%
X89411165Y-75696699D03*
D11*
X92946698Y-72161166D03*
D12*
X94360913Y-84889088D03*
X102139087Y-77110912D03*
%TD*%
D13*
%TO.C,H2*%
X173100000Y-82750000D03*
X173802944Y-81052944D03*
X173802944Y-84447056D03*
X175500000Y-80350000D03*
D14*
X175500000Y-82750000D03*
D13*
X175500000Y-85150000D03*
X177197056Y-81052944D03*
X177197056Y-84447056D03*
X177900000Y-82750000D03*
%TD*%
D15*
%TO.C,J13*%
X147710000Y-52692500D03*
D16*
X150250000Y-52692500D03*
X152790000Y-52692500D03*
%TD*%
D13*
%TO.C,H1*%
X83600000Y-82750000D03*
X84302944Y-81052944D03*
X84302944Y-84447056D03*
X86000000Y-80350000D03*
D14*
X86000000Y-82750000D03*
D13*
X86000000Y-85150000D03*
X87697056Y-81052944D03*
X87697056Y-84447056D03*
X88400000Y-82750000D03*
%TD*%
D17*
%TO.C,SW1*%
X86732233Y-73017767D03*
D18*
X88500000Y-71250000D03*
X90267767Y-69482233D03*
%TD*%
D19*
%TO.C,J4*%
X88105000Y-56610000D03*
X88105000Y-62390000D03*
D20*
X88605000Y-55180000D03*
D21*
X84425000Y-55180000D03*
D20*
X88605000Y-63820000D03*
D21*
X84425000Y-63820000D03*
%TD*%
D22*
%TO.C,R17*%
X129000000Y-62087500D03*
X129000000Y-63912500D03*
%TD*%
D23*
%TO.C,L1*%
X100892250Y-60750000D03*
X97107750Y-60750000D03*
%TD*%
D24*
%TO.C,C17*%
X94750000Y-60300000D03*
X94750000Y-62200000D03*
%TD*%
D25*
%TO.C,R6*%
X83287500Y-65750000D03*
X85112500Y-65750000D03*
%TD*%
D22*
%TO.C,R35*%
X156750000Y-51087500D03*
X156750000Y-52912500D03*
%TD*%
D26*
%TO.C,J10*%
X123250000Y-74200000D03*
X122000000Y-74200000D03*
X120750000Y-74200000D03*
D27*
X125800000Y-76950000D03*
X118200000Y-76950000D03*
%TD*%
D24*
%TO.C,C14*%
X145250000Y-63750000D03*
X145250000Y-65650000D03*
%TD*%
D28*
%TO.C,R18*%
X131000000Y-63912500D03*
X131000000Y-62087500D03*
%TD*%
D29*
%TO.C,U1*%
X97063173Y-74272614D03*
X97416726Y-74626167D03*
X97770280Y-74979720D03*
X98123833Y-75333274D03*
X98477386Y-75686827D03*
X95436827Y-78727386D03*
X95083274Y-78373833D03*
X94729720Y-78020280D03*
X94376167Y-77666726D03*
X94022614Y-77313173D03*
D30*
X96250000Y-76500000D03*
%TD*%
D24*
%TO.C,C12*%
X115398200Y-63847664D03*
X115398200Y-65747664D03*
%TD*%
D22*
%TO.C,R29*%
X92000000Y-51587500D03*
X92000000Y-53412500D03*
%TD*%
D28*
%TO.C,R39*%
X135250000Y-69162500D03*
X135250000Y-67337500D03*
%TD*%
D31*
%TO.C,J3*%
X124000000Y-59250000D03*
X124000000Y-60250000D03*
X124000000Y-61250000D03*
X124000000Y-62250000D03*
X124000000Y-63250000D03*
X124000000Y-64250000D03*
D32*
X121475000Y-57950000D03*
X121475000Y-65550000D03*
%TD*%
D33*
%TO.C,J2*%
X137425000Y-64250000D03*
X137425000Y-63250000D03*
X137425000Y-62250000D03*
X137425000Y-61250000D03*
X137425000Y-60250000D03*
X137425000Y-59250000D03*
D34*
X139950000Y-65550000D03*
X139950000Y-57950000D03*
%TD*%
D35*
%TO.C,R20*%
X98000000Y-69500000D03*
X96175000Y-69500000D03*
%TD*%
D36*
%TO.C,R5*%
X86895235Y-76104765D03*
X85604765Y-77395235D03*
%TD*%
D22*
%TO.C,R30*%
X99500000Y-51587500D03*
X99500000Y-53412500D03*
%TD*%
D28*
%TO.C,R37*%
X129750000Y-69162500D03*
X129750000Y-67337500D03*
%TD*%
%TO.C,R38*%
X132500000Y-69162500D03*
X132500000Y-67337500D03*
%TD*%
D24*
%TO.C,C11*%
X96750000Y-63800000D03*
X96750000Y-65700000D03*
%TD*%
D37*
%TO.C,C31*%
X174800000Y-51000000D03*
X176700000Y-51000000D03*
%TD*%
D38*
%TO.C,J5*%
X147450000Y-62500000D03*
X147450000Y-63750000D03*
X147450000Y-65000000D03*
D39*
X150200000Y-59950000D03*
X150200000Y-67550000D03*
%TD*%
D25*
%TO.C,R12*%
X99587500Y-67500000D03*
X101412500Y-67500000D03*
%TD*%
D26*
%TO.C,J9*%
X112250000Y-74200000D03*
X111000000Y-74200000D03*
X109750000Y-74200000D03*
D27*
X114800000Y-76950000D03*
X107200000Y-76950000D03*
%TD*%
D40*
%TO.C,U9*%
X174362500Y-54700000D03*
X174362500Y-53750000D03*
X174362500Y-52800000D03*
X176637500Y-52800000D03*
X176637500Y-54700000D03*
%TD*%
D22*
%TO.C,R28*%
X158261048Y-63671771D03*
X158261048Y-65496771D03*
%TD*%
D26*
%TO.C,J11*%
X146750000Y-74200000D03*
X145500000Y-74200000D03*
X144250000Y-74200000D03*
D27*
X149300000Y-76950000D03*
X141700000Y-76950000D03*
%TD*%
D35*
%TO.C,R34*%
X85162500Y-67750000D03*
X83337500Y-67750000D03*
%TD*%
D25*
%TO.C,R31*%
X83337500Y-69750000D03*
X85162500Y-69750000D03*
%TD*%
D41*
%TO.C,R1*%
X93645235Y-79895235D03*
X92354765Y-78604765D03*
%TD*%
D42*
%TO.C,C1*%
X98921751Y-77828249D03*
X97578249Y-79171751D03*
%TD*%
D43*
%TO.C,BZ1*%
X160500000Y-64750000D03*
X175500000Y-64750000D03*
%TD*%
D44*
%TO.C,J7*%
X129500000Y-60000000D03*
X130750000Y-60000000D03*
X132000000Y-60000000D03*
D45*
X126950000Y-57250000D03*
X134550000Y-57250000D03*
%TD*%
D24*
%TO.C,C13*%
X101250000Y-63800000D03*
X101250000Y-65700000D03*
%TD*%
D26*
%TO.C,J6*%
X135625000Y-74200000D03*
X134375000Y-74200000D03*
X133125000Y-74200000D03*
X131875000Y-74200000D03*
D27*
X138175000Y-76950000D03*
X129325000Y-76950000D03*
%TD*%
D46*
%TO.C,D2*%
X95650000Y-57000000D03*
X92850000Y-57000000D03*
%TD*%
D47*
%TO.C,U4*%
X98250000Y-63787500D03*
X98750000Y-63787500D03*
X99250000Y-63787500D03*
X99250000Y-65212500D03*
X98750000Y-65212500D03*
X98250000Y-65212500D03*
%TD*%
D48*
%TO.C,J8*%
X113250000Y-65000000D03*
X113250000Y-63750000D03*
X113250000Y-62500000D03*
D49*
X110500000Y-67550000D03*
X110500000Y-59950000D03*
%TD*%
D50*
%TO.C,C8*%
X88650000Y-65750000D03*
X86750000Y-65750000D03*
%TD*%
D51*
%TO.C,D1*%
X97600000Y-57000000D03*
X100400000Y-57000000D03*
%TD*%
D25*
%TO.C,R19*%
X96087500Y-67500000D03*
X97912500Y-67500000D03*
%TD*%
D35*
%TO.C,R11*%
X101412500Y-69500000D03*
X99587500Y-69500000D03*
%TD*%
D24*
%TO.C,C20*%
X92750000Y-60300000D03*
X92750000Y-62200000D03*
%TD*%
D52*
%TO.C,Q1*%
X85693243Y-74599741D03*
X84349741Y-75943243D03*
X83412824Y-73662824D03*
%TD*%
M02*
