%TF.GenerationSoftware,KiCad,Pcbnew,10.0.0*%
%TF.CreationDate,2026-04-12T12:35:11+02:00*%
%TF.ProjectId,SUMEC_MK_V_Pro,53554d45-435f-44d4-9b5f-565f50726f2e,v2.1.1*%
%TF.SameCoordinates,Original*%
%TF.FileFunction,Profile,NP*%
%FSLAX46Y46*%
G04 Gerber Fmt 4.6, Leading zero omitted, Abs format (unit mm)*
G04 Created by KiCad (PCBNEW 10.0.0) date 2026-04-12 12:35:11*
%MOMM*%
%LPD*%
G01*
G04 APERTURE LIST*
%TA.AperFunction,Profile*%
%ADD10C,0.100000*%
%TD*%
G04 APERTURE END LIST*
D10*
X82250000Y-50000000D02*
G75*
G02*
X83250000Y-49000000I1000000J0D01*
G01*
X82250000Y-75250000D02*
X82250000Y-50000000D01*
X82250000Y-75250000D02*
X82250000Y-85500000D01*
X83250000Y-86500000D02*
G75*
G02*
X82250000Y-85500000I0J1000000D01*
G01*
X83250000Y-86500000D02*
X96250000Y-86500000D01*
X96250000Y-86500000D02*
X103750000Y-79000000D01*
X121500000Y-49000000D02*
X83250000Y-49000000D01*
X121500000Y-55250000D02*
X121500000Y-49000000D01*
X140250000Y-49000000D02*
X140250000Y-55250000D01*
X140250000Y-55250000D02*
X121500000Y-55250000D01*
X170750000Y-79000000D02*
X103750000Y-79000000D01*
X170750000Y-79000000D02*
G75*
G02*
X171750000Y-80000000I0J-1000000D01*
G01*
X171750000Y-80000000D02*
X171750000Y-85500000D01*
X172750000Y-86500000D02*
G75*
G02*
X171750000Y-85500000I0J1000000D01*
G01*
X172750000Y-86500000D02*
X178250000Y-86500000D01*
X178250000Y-49000000D02*
X140250000Y-49000000D01*
X178250000Y-49000000D02*
G75*
G02*
X179250000Y-50000000I0J-1000000D01*
G01*
X179250000Y-50000000D02*
X179250000Y-79000000D01*
X179250000Y-85500000D02*
G75*
G02*
X178250000Y-86500000I-1000000J0D01*
G01*
X179250000Y-85500000D02*
X179250000Y-79000000D01*
M02*
